<?xml version="1.0" encoding="UTF-8" standalone="no"?>
<!-- Created with Inkscape (http://www.inkscape.org/) -->

<svg
   version="1.1"
   id="svg9872"
   xml:space="preserve"
   width="768"
   height="576"
   viewBox="0 0 768 576"
   sodipodi:docname="RFRReImALF2-q10-M1225-cv.pdf"
   xmlns:inkscape="http://www.inkscape.org/namespaces/inkscape"
   xmlns:sodipodi="http://sodipodi.sourceforge.net/DTD/sodipodi-0.dtd"
   xmlns="http://www.w3.org/2000/svg"
   xmlns:svg="http://www.w3.org/2000/svg"><defs
     id="defs9876"><clipPath
       clipPathUnits="userSpaceOnUse"
       id="clipPath9890"><path
         d="m 56.405,329.2 h 494.5075 v 90.74 H 56.405 Z"
         id="path9888" /></clipPath><clipPath
       clipPathUnits="userSpaceOnUse"
       id="clipPath9904"><path
         d="m 56.405,329.2 h 494.5075 v 90.74 H 56.405 Z"
         id="path9902" /></clipPath><clipPath
       clipPathUnits="userSpaceOnUse"
       id="clipPath9918"><path
         d="m 56.405,329.2 h 494.5075 v 90.74 H 56.405 Z"
         id="path9916" /></clipPath><clipPath
       clipPathUnits="userSpaceOnUse"
       id="clipPath9932"><path
         d="m 56.405,329.2 h 494.5075 v 90.74 H 56.405 Z"
         id="path9930" /></clipPath><clipPath
       clipPathUnits="userSpaceOnUse"
       id="clipPath9946"><path
         d="m 56.405,329.2 h 494.5075 v 90.74 H 56.405 Z"
         id="path9944" /></clipPath><clipPath
       clipPathUnits="userSpaceOnUse"
       id="clipPath9960"><path
         d="m 56.405,329.2 h 494.5075 v 90.74 H 56.405 Z"
         id="path9958" /></clipPath><clipPath
       clipPathUnits="userSpaceOnUse"
       id="clipPath9974"><path
         d="m 56.405,329.2 h 494.5075 v 90.74 H 56.405 Z"
         id="path9972" /></clipPath><clipPath
       clipPathUnits="userSpaceOnUse"
       id="clipPath9988"><path
         d="m 56.405,329.2 h 494.5075 v 90.74 H 56.405 Z"
         id="path9986" /></clipPath><clipPath
       clipPathUnits="userSpaceOnUse"
       id="clipPath10010"><path
         d="M -1021,-463 H 1794 V 1233 H -1021 Z"
         id="path10008" /></clipPath><clipPath
       clipPathUnits="userSpaceOnUse"
       id="clipPath10020"><path
         d="m 56.405,329.2 h 494.5075 v 90.74 H 56.405 Z"
         id="path10018" /></clipPath><clipPath
       clipPathUnits="userSpaceOnUse"
       id="clipPath10042"><path
         d="M -1021,-463 H 1794 V 1233 H -1021 Z"
         id="path10040" /></clipPath><clipPath
       clipPathUnits="userSpaceOnUse"
       id="clipPath10078"><path
         d="M -1000,-363 H 1503 V 1566 H -1000 Z"
         id="path10076" /></clipPath><clipPath
       clipPathUnits="userSpaceOnUse"
       id="clipPath10090"><path
         d="M -1000,-363 H 1503 V 1566 H -1000 Z"
         id="path10088" /></clipPath><clipPath
       clipPathUnits="userSpaceOnUse"
       id="clipPath10108"><path
         d="m 56.405,329.2 h 494.5075 v 90.74 H 56.405 Z"
         id="path10106" /></clipPath><clipPath
       clipPathUnits="userSpaceOnUse"
       id="clipPath10118"><path
         d="m 56.405,329.2 h 494.5075 v 90.74 H 56.405 Z"
         id="path10116" /></clipPath><clipPath
       clipPathUnits="userSpaceOnUse"
       id="clipPath10144"><path
         d="m 56.405,185.58 h 494.5075 v 90.74 H 56.405 Z"
         id="path10142" /></clipPath><clipPath
       clipPathUnits="userSpaceOnUse"
       id="clipPath10162"><path
         d="m 56.405,185.58 h 494.5075 v 90.74 H 56.405 Z"
         id="path10160" /></clipPath><clipPath
       clipPathUnits="userSpaceOnUse"
       id="clipPath10180"><path
         d="m 56.405,185.58 h 494.5075 v 90.74 H 56.405 Z"
         id="path10178" /></clipPath><clipPath
       clipPathUnits="userSpaceOnUse"
       id="clipPath10198"><path
         d="m 56.405,185.58 h 494.5075 v 90.74 H 56.405 Z"
         id="path10196" /></clipPath><clipPath
       clipPathUnits="userSpaceOnUse"
       id="clipPath10216"><path
         d="m 56.405,185.58 h 494.5075 v 90.74 H 56.405 Z"
         id="path10214" /></clipPath><clipPath
       clipPathUnits="userSpaceOnUse"
       id="clipPath10234"><path
         d="m 56.405,185.58 h 494.5075 v 90.74 H 56.405 Z"
         id="path10232" /></clipPath><clipPath
       clipPathUnits="userSpaceOnUse"
       id="clipPath10252"><path
         d="m 56.405,185.58 h 494.5075 v 90.74 H 56.405 Z"
         id="path10250" /></clipPath><clipPath
       clipPathUnits="userSpaceOnUse"
       id="clipPath10274"><path
         d="m 56.405,185.58 h 494.5075 v 90.74 H 56.405 Z"
         id="path10272" /></clipPath><clipPath
       clipPathUnits="userSpaceOnUse"
       id="clipPath10296"><path
         d="M -1021,-463 H 1794 V 1233 H -1021 Z"
         id="path10294" /></clipPath><clipPath
       clipPathUnits="userSpaceOnUse"
       id="clipPath10306"><path
         d="m 56.405,185.58 h 494.5075 v 90.74 H 56.405 Z"
         id="path10304" /></clipPath><clipPath
       clipPathUnits="userSpaceOnUse"
       id="clipPath10328"><path
         d="M -1021,-463 H 1794 V 1233 H -1021 Z"
         id="path10326" /></clipPath><clipPath
       clipPathUnits="userSpaceOnUse"
       id="clipPath10338"><path
         d="m 56.405,185.58 h 494.5075 v 90.74 H 56.405 Z"
         id="path10336" /></clipPath><clipPath
       clipPathUnits="userSpaceOnUse"
       id="clipPath10356"><path
         d="m 56.405,185.58 h 494.5075 v 90.74 H 56.405 Z"
         id="path10354" /></clipPath><clipPath
       clipPathUnits="userSpaceOnUse"
       id="clipPath10378"><path
         d="m 56.405,185.58 h 494.5075 v 90.74 H 56.405 Z"
         id="path10376" /></clipPath><clipPath
       clipPathUnits="userSpaceOnUse"
       id="clipPath10388"><path
         d="m 56.405,185.58 h 494.5075 v 90.74 H 56.405 Z"
         id="path10386" /></clipPath><clipPath
       clipPathUnits="userSpaceOnUse"
       id="clipPath10414"><path
         d="M 56.405,41.96 H 550.9125 V 132.7 H 56.405 Z"
         id="path10412" /></clipPath><clipPath
       clipPathUnits="userSpaceOnUse"
       id="clipPath10432"><path
         d="M 56.405,41.96 H 550.9125 V 132.7 H 56.405 Z"
         id="path10430" /></clipPath><clipPath
       clipPathUnits="userSpaceOnUse"
       id="clipPath10450"><path
         d="M 56.405,41.96 H 550.9125 V 132.7 H 56.405 Z"
         id="path10448" /></clipPath><clipPath
       clipPathUnits="userSpaceOnUse"
       id="clipPath10468"><path
         d="M 56.405,41.96 H 550.9125 V 132.7 H 56.405 Z"
         id="path10466" /></clipPath><clipPath
       clipPathUnits="userSpaceOnUse"
       id="clipPath10486"><path
         d="M 56.405,41.96 H 550.9125 V 132.7 H 56.405 Z"
         id="path10484" /></clipPath><clipPath
       clipPathUnits="userSpaceOnUse"
       id="clipPath10504"><path
         d="M 56.405,41.96 H 550.9125 V 132.7 H 56.405 Z"
         id="path10502" /></clipPath><clipPath
       clipPathUnits="userSpaceOnUse"
       id="clipPath10526"><path
         d="M 56.405,41.96 H 550.9125 V 132.7 H 56.405 Z"
         id="path10524" /></clipPath><clipPath
       clipPathUnits="userSpaceOnUse"
       id="clipPath10548"><path
         d="M -1021,-463 H 1794 V 1233 H -1021 Z"
         id="path10546" /></clipPath><clipPath
       clipPathUnits="userSpaceOnUse"
       id="clipPath10558"><path
         d="M 56.405,41.96 H 550.9125 V 132.7 H 56.405 Z"
         id="path10556" /></clipPath><clipPath
       clipPathUnits="userSpaceOnUse"
       id="clipPath10576"><path
         d="M 56.405,41.96 H 550.9125 V 132.7 H 56.405 Z"
         id="path10574" /></clipPath><clipPath
       clipPathUnits="userSpaceOnUse"
       id="clipPath10606"><path
         d="M -1021,-463 H 1794 V 1233 H -1021 Z"
         id="path10604" /></clipPath><clipPath
       clipPathUnits="userSpaceOnUse"
       id="clipPath10616"><path
         d="M 56.405,41.96 H 550.9125 V 132.7 H 56.405 Z"
         id="path10614" /></clipPath><clipPath
       clipPathUnits="userSpaceOnUse"
       id="clipPath10626"><path
         d="M 56.405,41.96 H 550.9125 V 132.7 H 56.405 Z"
         id="path10624" /></clipPath></defs><sodipodi:namedview
     id="namedview9874"
     pagecolor="#ffffff"
     bordercolor="#666666"
     borderopacity="1.0"
     inkscape:pageshadow="2"
     inkscape:pageopacity="0.0"
     inkscape:pagecheckerboard="0" /><g
     id="g9878"
     inkscape:groupmode="layer"
     inkscape:label="RFRReImALF2-q10-M1225-cv"
     transform="matrix(1.3333333,0,0,-1.3333333,0,576)"><path
       d="M 0,0 H 576 V 432 H 0 Z"
       style="fill:#ffffff;fill-opacity:1;fill-rule:nonzero;stroke:none"
       id="path9880" /><path
       d="m 56.405,329.2 h 494.5075 v 90.74 H 56.405 Z"
       style="fill:#ffffff;fill-opacity:1;fill-rule:nonzero;stroke:none"
       id="path9882" /><g
       id="g9884"><g
         id="g9886"
         clip-path="url(#clipPath9890)"><path
           d="m 56.405,329.2 v 90.74"
           style="fill:none;stroke:#b0b0b0;stroke-width:0.8;stroke-linecap:square;stroke-linejoin:round;stroke-miterlimit:10;stroke-dasharray:none;stroke-opacity:1"
           id="path9892" /></g></g><g
       id="g9894"><path
         d="m 56.405,329.2 v -3.5"
         style="fill:#000000;fill-opacity:1;fill-rule:nonzero;stroke:#000000;stroke-width:0.8;stroke-linecap:butt;stroke-linejoin:round;stroke-miterlimit:10;stroke-dasharray:none;stroke-opacity:1"
         id="path9896" /></g><g
       id="g9898"><g
         id="g9900"
         clip-path="url(#clipPath9904)"><path
           d="m 138.82292,329.2 v 90.74"
           style="fill:none;stroke:#b0b0b0;stroke-width:0.8;stroke-linecap:square;stroke-linejoin:round;stroke-miterlimit:10;stroke-dasharray:none;stroke-opacity:1"
           id="path9906" /></g></g><g
       id="g9908"><path
         d="m 138.82292,329.2 v -3.5"
         style="fill:#000000;fill-opacity:1;fill-rule:nonzero;stroke:#000000;stroke-width:0.8;stroke-linecap:butt;stroke-linejoin:round;stroke-miterlimit:10;stroke-dasharray:none;stroke-opacity:1"
         id="path9910" /></g><g
       id="g9912"><g
         id="g9914"
         clip-path="url(#clipPath9918)"><path
           d="m 221.24083,329.2 v 90.74"
           style="fill:none;stroke:#b0b0b0;stroke-width:0.8;stroke-linecap:square;stroke-linejoin:round;stroke-miterlimit:10;stroke-dasharray:none;stroke-opacity:1"
           id="path9920" /></g></g><g
       id="g9922"><path
         d="m 221.24083,329.2 v -3.5"
         style="fill:#000000;fill-opacity:1;fill-rule:nonzero;stroke:#000000;stroke-width:0.8;stroke-linecap:butt;stroke-linejoin:round;stroke-miterlimit:10;stroke-dasharray:none;stroke-opacity:1"
         id="path9924" /></g><g
       id="g9926"><g
         id="g9928"
         clip-path="url(#clipPath9932)"><path
           d="m 303.65875,329.2 v 90.74"
           style="fill:none;stroke:#b0b0b0;stroke-width:0.8;stroke-linecap:square;stroke-linejoin:round;stroke-miterlimit:10;stroke-dasharray:none;stroke-opacity:1"
           id="path9934" /></g></g><g
       id="g9936"><path
         d="m 303.65875,329.2 v -3.5"
         style="fill:#000000;fill-opacity:1;fill-rule:nonzero;stroke:#000000;stroke-width:0.8;stroke-linecap:butt;stroke-linejoin:round;stroke-miterlimit:10;stroke-dasharray:none;stroke-opacity:1"
         id="path9938" /></g><g
       id="g9940"><g
         id="g9942"
         clip-path="url(#clipPath9946)"><path
           d="m 386.07667,329.2 v 90.74"
           style="fill:none;stroke:#b0b0b0;stroke-width:0.8;stroke-linecap:square;stroke-linejoin:round;stroke-miterlimit:10;stroke-dasharray:none;stroke-opacity:1"
           id="path9948" /></g></g><g
       id="g9950"><path
         d="m 386.07667,329.2 v -3.5"
         style="fill:#000000;fill-opacity:1;fill-rule:nonzero;stroke:#000000;stroke-width:0.8;stroke-linecap:butt;stroke-linejoin:round;stroke-miterlimit:10;stroke-dasharray:none;stroke-opacity:1"
         id="path9952" /></g><g
       id="g9954"><g
         id="g9956"
         clip-path="url(#clipPath9960)"><path
           d="m 468.49458,329.2 v 90.74"
           style="fill:none;stroke:#b0b0b0;stroke-width:0.8;stroke-linecap:square;stroke-linejoin:round;stroke-miterlimit:10;stroke-dasharray:none;stroke-opacity:1"
           id="path9962" /></g></g><g
       id="g9964"><path
         d="m 468.49458,329.2 v -3.5"
         style="fill:#000000;fill-opacity:1;fill-rule:nonzero;stroke:#000000;stroke-width:0.8;stroke-linecap:butt;stroke-linejoin:round;stroke-miterlimit:10;stroke-dasharray:none;stroke-opacity:1"
         id="path9966" /></g><g
       id="g9968"><g
         id="g9970"
         clip-path="url(#clipPath9974)"><path
           d="m 550.9125,329.2 v 90.74"
           style="fill:none;stroke:#b0b0b0;stroke-width:0.8;stroke-linecap:square;stroke-linejoin:round;stroke-miterlimit:10;stroke-dasharray:none;stroke-opacity:1"
           id="path9976" /></g></g><g
       id="g9978"><path
         d="m 550.9125,329.2 v -3.5"
         style="fill:#000000;fill-opacity:1;fill-rule:nonzero;stroke:#000000;stroke-width:0.8;stroke-linecap:butt;stroke-linejoin:round;stroke-miterlimit:10;stroke-dasharray:none;stroke-opacity:1"
         id="path9980" /></g><g
       id="g9982"><g
         id="g9984"
         clip-path="url(#clipPath9988)"><path
           d="M 56.405,347.86517 H 550.9125"
           style="fill:none;stroke:#b0b0b0;stroke-width:0.8;stroke-linecap:square;stroke-linejoin:round;stroke-miterlimit:10;stroke-dasharray:none;stroke-opacity:1"
           id="path9990" /></g></g><g
       id="g9992"><path
         d="m 56.405,347.86517 h -3.5"
         style="fill:#000000;fill-opacity:1;fill-rule:nonzero;stroke:#000000;stroke-width:0.8;stroke-linecap:butt;stroke-linejoin:round;stroke-miterlimit:10;stroke-dasharray:none;stroke-opacity:1"
         id="path9994" /><g
         id="g9996"
         transform="translate(28.31125,344.0683)"><text
           transform="matrix(1,0,0,-1,8.3789063,0)"
           style="font-variant:normal;font-weight:normal;font-size:10px;font-family:'DejaVu Sans Mono for Powerline';-inkscape-font-specification:DejaVuSans;writing-mode:lr-tb;fill:#000000;fill-opacity:1;fill-rule:nonzero;stroke:none"
           id="text10000"><tspan
             x="0 6.3600001"
             y="0"
             sodipodi:role="line"
             id="tspan9998">26</tspan></text><g
           id="g10002"
           transform="scale(0.01)"><g
             id="g10004"><g
               id="g10006"
               clip-path="url(#clipPath10010)"><path
                 d="M 106,355 H 732 V 272 H 106 v 83"
                 style="fill:#000000;fill-opacity:1;fill-rule:nonzero;stroke:none"
                 id="path10012" /></g></g></g></g></g><g
       id="g10014"><g
         id="g10016"
         clip-path="url(#clipPath10020)"><path
           d="M 56.405,384.4334 H 550.9125"
           style="fill:none;stroke:#b0b0b0;stroke-width:0.8;stroke-linecap:square;stroke-linejoin:round;stroke-miterlimit:10;stroke-dasharray:none;stroke-opacity:1"
           id="path10022" /></g></g><g
       id="g10024"><path
         d="m 56.405,384.4334 h -3.5"
         style="fill:#000000;fill-opacity:1;fill-rule:nonzero;stroke:#000000;stroke-width:0.8;stroke-linecap:butt;stroke-linejoin:round;stroke-miterlimit:10;stroke-dasharray:none;stroke-opacity:1"
         id="path10026" /><g
         id="g10028"
         transform="translate(28.31125,380.63653)"><text
           transform="matrix(1,0,0,-1,8.3789063,0)"
           style="font-variant:normal;font-weight:normal;font-size:10px;font-family:'DejaVu Sans Mono for Powerline';-inkscape-font-specification:DejaVuSans;writing-mode:lr-tb;fill:#000000;fill-opacity:1;fill-rule:nonzero;stroke:none"
           id="text10032"><tspan
             x="0 6.3600001"
             y="0"
             sodipodi:role="line"
             id="tspan10030">25</tspan></text><g
           id="g10034"
           transform="scale(0.01)"><g
             id="g10036"><g
               id="g10038"
               clip-path="url(#clipPath10042)"><path
                 d="M 106,355 H 732 V 272 H 106 v 83"
                 style="fill:#000000;fill-opacity:1;fill-rule:nonzero;stroke:none"
                 id="path10044" /></g></g></g></g><g
         id="g10046"
         transform="rotate(90,-155.37937,177.69062)"><text
           transform="matrix(1,0,0,-1,0,0.6875)"
           style="font-variant:normal;font-weight:normal;font-size:8px;font-family:'DejaVu Sans Mono for Powerline';-inkscape-font-specification:DejaVuSans;writing-mode:lr-tb;fill:#000000;fill-opacity:1;fill-rule:nonzero;stroke:none"
           id="text10050"><tspan
             x="0 2.6953125 8.7109375 11.832031 14.648438 17.769531"
             y="0"
             sodipodi:role="line"
             id="tspan10048">|H(f)|</tspan></text><text
           transform="matrix(1,0,0,-1,26.353455,0.82375)"
           style="font-style:italic;font-variant:normal;font-size:8px;font-family:'DejaVu Sans Mono for Powerline';-inkscape-font-specification:DejaVuSans-Oblique;writing-mode:lr-tb;fill:#000000;fill-opacity:1;fill-rule:nonzero;stroke:none"
           id="text10054"><tspan
             x="0"
             y="0"
             id="tspan10052">f</tspan></text><text
           transform="matrix(1,0,0,-1,32.767491,1.40625)"
           style="font-variant:normal;font-weight:normal;font-size:8.50438px;font-family:STIXSizeOneSym;-inkscape-font-specification:STIXSizeOneSym-Regular;writing-mode:lr-tb;fill:#000000;fill-opacity:1;fill-rule:nonzero;stroke:none"
           id="text10058"><tspan
             x="0"
             y="0"
             id="tspan10056">[</tspan></text><text
           transform="matrix(1,0,0,-1,36.022984,0.6875)"
           style="font-variant:normal;font-weight:normal;font-size:8px;font-family:'DejaVu Sans Mono for Powerline';-inkscape-font-specification:DejaVuSans;writing-mode:lr-tb;fill:#000000;fill-opacity:1;fill-rule:nonzero;stroke:none"
           id="text10064"><tspan
             x="0 5.078125 8.2148438 11.503906 16.40625 18.628906 23.699219"
             y="0"
             sodipodi:role="line"
             id="tspan10060">Strain/</tspan><tspan
             x="32.151031 38.166656"
             y="-0.38624999"
             sodipodi:role="line"
             id="tspan10062">Hz</tspan></text><text
           transform="matrix(1,0,0,-1,79.38886,1.40625)"
           style="font-variant:normal;font-weight:normal;font-size:8.50438px;font-family:STIXSizeOneSym;-inkscape-font-specification:STIXSizeOneSym-Regular;writing-mode:lr-tb;fill:#000000;fill-opacity:1;fill-rule:nonzero;stroke:none"
           id="text10068"><tspan
             x="0"
             y="0"
             id="tspan10066">]</tspan></text><g
           id="g10070"
           transform="matrix(0.00464271,0,0,0.00464271,20.464844,2.15625)"><g
             id="g10072"><g
               id="g10074"
               clip-path="url(#clipPath10078)"><path
                 d="M 1089,1552 527,-294 H 485 L 254,456 c -8,24 -16,41 -25,52 -10,10 -22,16 -37,16 -23,0 -46,-9 -68,-27 l -12,20 164,126 h 25 L 528,-93 h 4 l 500,1645 h 57"
                 style="fill:#000000;fill-opacity:1;fill-rule:nonzero;stroke:none"
                 id="path10080" /></g></g></g><g
           id="g10082"
           transform="matrix(0.0045074,0,0,0.0045074,62.417516,2.15625)"><g
             id="g10084"><g
               id="g10086"
               clip-path="url(#clipPath10090)"><path
                 d="M 1089,1552 527,-294 H 485 L 254,456 c -8,24 -16,41 -25,52 -10,10 -22,16 -37,16 -23,0 -46,-9 -68,-27 l -12,20 164,126 h 25 L 528,-93 h 4 l 500,1645 h 57"
                 style="fill:#000000;fill-opacity:1;fill-rule:nonzero;stroke:none"
                 id="path10092" /></g></g></g><g
           id="g10094"><path
             d="m 25.353455,9.401875 h 4.816406 v 0.5 h -4.816406 z"
             style="fill:#000000;fill-opacity:1;fill-rule:nonzero;stroke:none"
             id="path10096" /></g><g
           id="g10098"><path
             d="M 67.174016,9.401875 H 79.38886 v 0.5 H 67.174016 Z"
             style="fill:#000000;fill-opacity:1;fill-rule:nonzero;stroke:none"
             id="path10100" /></g></g></g><g
       id="g10102"><g
         id="g10104"
         clip-path="url(#clipPath10108)"><path
           d="m 66.445388,359.17424 3.346796,-2.05992 3.346795,2.31308 3.346796,0.10105 3.346796,-1.02106 3.346796,1.30403 3.346796,0.26425 3.346796,-0.0994 3.346796,-1.71243 3.346796,3.57255 3.346796,-0.0128 3.346793,0.70127 3.3468,3.47564 3.34679,0.17019 3.3468,-0.86231 3.3468,1.6539 3.34679,0.64725 3.3468,-0.81009 3.34679,0.34829 3.3468,-0.85648 3.3468,-1.04047 3.34679,6.31264 3.3468,1.79113 3.34679,0.74128 3.3468,-1.84325 3.34679,1.39322 3.3468,3.56675 3.3468,2.31357 3.34679,0.3495 3.3468,-1.93197 3.34679,-2.60728 3.3468,-5.11766 3.3468,-8.50805 3.34679,7.15621 3.3468,9.46718 3.34679,8.35367 3.3468,4.02228 3.34679,2.19823 3.3468,1.0726 3.3468,1.90382 3.34679,2.09752 3.3468,0.92355 3.34679,1.45849 3.3468,0.38811 3.3468,-1.51788 3.34679,0.7205 3.3468,-2.3455 3.34679,-7.63917 3.3468,-7.28133 3.3468,-6.99282 3.34679,-2.62561 3.3468,-5.82499 3.34679,11.31357 3.3468,28.2805 3.3468,5.5989 3.34679,-1.47629 3.3468,2.35591 3.34679,2.49736 3.3468,-4.53354 3.34679,-2.62006 3.3468,-1.2783 3.3468,-3.57926 3.34679,-6.00702 3.3468,-2.69952 3.34679,-5.42263 3.3468,-13.11763 3.3468,2.54354 3.34679,5.82361 3.3468,1.07033 3.34679,-0.99434 3.3468,1.17364 3.3468,-0.19343 3.34679,-2.26466 3.3468,-3.99851 3.34679,-4.74678 3.3468,-1.15411 3.34679,-0.0593 3.3468,-1.54613 3.3468,-3.99731 3.34679,-6.25389 3.3468,-4.99493 3.34679,3.15088 3.3468,6.7017 6.69359,7.90099 3.3468,1.36675 3.34679,-0.51946 3.3468,-3.28579 3.3468,-11.35182 3.34679,-11.83511 3.3468,11.08497 3.34679,1.23953 3.3468,1.9902 3.34679,1.15086 3.3468,-0.86964 3.3468,-1.06193 3.34679,-1.75677 3.3468,-2.42795 3.34679,1.22598 3.3468,1.35099 10.04039,1.6646 3.34679,0.19004 3.3468,0.0627 3.3468,-0.17481 3.34679,-0.5246 3.3468,-0.36973 6.69359,0.35566 6.69359,-0.12057 3.3468,-0.58209 6.69359,-0.54576 3.34679,0.10709 3.3468,-0.0646 3.3468,-0.41222 3.34679,-0.64207 6.69359,-1.63145 3.3468,-0.48919 3.3468,-0.19529 3.34679,0.11252 6.69359,-0.019 3.3468,-0.31978 6.69359,-1.48909 6.69359,-0.72571 3.3468,-0.34339 6.69359,-0.458 3.3468,-0.37132 3.34679,-0.18734 6.69359,0.16414 3.3468,-0.0789 3.3468,-0.21548 10.04038,0.26394 6.6936,0.27223 v 0"
           style="fill:none;stroke:#000000;stroke-width:1.5;stroke-linecap:square;stroke-linejoin:round;stroke-miterlimit:10;stroke-dasharray:none;stroke-opacity:1"
           id="path10110" /></g></g><g
       id="g10112"><g
         id="g10114"
         clip-path="url(#clipPath10118)"><path
           d="m 66.445388,365.36642 3.346796,1.23989 3.346795,-1.02585 3.346796,0.17103 3.346796,1.28031 3.346796,0.387 3.346796,-0.32534 3.346796,-0.50296 3.346796,0.16045 3.346796,0.64654 3.346796,-0.0171 3.346793,-0.30981 3.3468,0.7083 3.34679,0.99622 6.6936,2.4721 3.34679,0.95836 6.69359,0.36125 3.3468,-0.56518 3.3468,-0.0593 3.34679,1.25686 3.3468,-0.0455 3.34679,-1.52487 3.3468,0.0486 3.34679,0.77928 3.3468,3.9169 3.3468,0.76441 3.34679,1.33282 3.3468,-0.28637 3.34679,-2.6053 3.3468,-1.64265 3.3468,-5.54012 3.34679,-3.39637 3.3468,5.8281 3.34679,6.26974 3.3468,7.13348 3.34679,3.4095 3.3468,0.90331 3.3468,2.02251 3.34679,2.65716 3.3468,0.44183 3.34679,0.25983 3.3468,-1.05723 3.3468,-5.03819 3.34679,-10.6055 3.3468,7.0472 3.34679,4.96257 3.3468,-5.15657 3.3468,3.92872 3.34679,2.36844 3.3468,-7.47862 3.34679,8.82312 3.3468,21.86603 3.3468,1.168 3.34679,-6.50326 3.3468,-0.38155 3.34679,-4.77886 3.3468,-4.21073 3.34679,-7.67831 3.3468,-1.14044 3.3468,-1.91344 3.34679,-3.30088 3.3468,-7.06673 3.34679,-8.71218 3.3468,-0.68508 3.3468,0.54119 3.34679,7.91299 3.3468,-2.05283 3.34679,-2.4421 3.3468,-0.8627 3.3468,-3.43609 6.69359,-7.58242 3.34679,-1.91103 3.3468,-1.2738 3.34679,-4.86002 3.3468,-11.34431 3.3468,-7.74642 3.34679,16.63919 3.3468,5.66082 3.34679,2.62854 3.3468,-0.23283 3.3468,0.64437 3.34679,-3.14328 3.3468,-13.62859 3.34679,-6.17811 3.3468,13.56403 3.3468,2.23661 3.34679,-1.05015 3.3468,1.15442 3.34679,1.38771 3.3468,-0.88023 3.34679,-1.67034 3.3468,-0.7015 6.69359,2.96227 3.3468,1.16449 3.34679,0.33412 3.3468,-1.21864 3.3468,-0.71529 3.34679,0.054 3.3468,-0.92923 3.34679,-0.46892 3.3468,-0.23617 3.3468,-0.62388 3.34679,-0.38153 3.3468,-0.69946 10.04038,-1.4968 3.3468,-0.19199 3.3468,-0.072 3.34679,-0.47138 3.3468,-0.6197 3.34679,-0.91845 3.3468,-0.65442 3.3468,0.14054 3.34679,0.25252 13.38719,-1.49721 3.34679,-0.47937 6.69359,-1.1726 3.3468,-0.26459 3.34679,0.17656 3.3468,-0.0887 3.3468,-0.20301 3.34679,-0.0617 3.3468,0.0587 3.34679,0.42671 3.3468,0.11342 6.69359,-0.17414 13.38719,0.13424 6.69359,-0.41931 6.69359,0.0793 3.3468,0.10343 v 0"
           style="fill:none;stroke:#0000ff;stroke-width:1.5;stroke-linecap:square;stroke-linejoin:round;stroke-miterlimit:10;stroke-dasharray:none;stroke-opacity:1"
           id="path10120" /></g></g><g
       id="g10122"><path
         d="m 56.405,329.2 v 90.74"
         style="fill:none;stroke:#000000;stroke-width:0.8;stroke-linecap:square;stroke-linejoin:miter;stroke-miterlimit:10;stroke-dasharray:none;stroke-opacity:1"
         id="path10124" /><path
         d="m 550.9125,329.2 v 90.74"
         style="fill:none;stroke:#000000;stroke-width:0.8;stroke-linecap:square;stroke-linejoin:miter;stroke-miterlimit:10;stroke-dasharray:none;stroke-opacity:1"
         id="path10126" /><path
         d="M 56.405,329.2 H 550.9125"
         style="fill:none;stroke:#000000;stroke-width:0.8;stroke-linecap:square;stroke-linejoin:miter;stroke-miterlimit:10;stroke-dasharray:none;stroke-opacity:1"
         id="path10128" /><path
         d="M 56.405,419.94 H 550.9125"
         style="fill:none;stroke:#000000;stroke-width:0.8;stroke-linecap:square;stroke-linejoin:miter;stroke-miterlimit:10;stroke-dasharray:none;stroke-opacity:1"
         id="path10130" /><text
         transform="matrix(1,0,0,-1,526.18712,406.329)"
         style="font-variant:normal;font-weight:normal;font-size:12px;font-family:'DejaVu Sans Mono for Powerline';-inkscape-font-specification:DejaVuSans;writing-mode:lr-tb;fill:#000000;fill-opacity:1;fill-rule:nonzero;stroke:none"
         id="text10134"><tspan
           x="0 7.3559999"
           y="0"
           sodipodi:role="line"
           id="tspan10132">a)</tspan></text><path
         d="m 56.405,185.58 h 494.5075 v 90.74 H 56.405 Z"
         style="fill:#ffffff;fill-opacity:1;fill-rule:nonzero;stroke:none"
         id="path10136" /></g><g
       id="g10138"><g
         id="g10140"
         clip-path="url(#clipPath10144)"><path
           d="m 56.405,185.58 v 90.74"
           style="fill:none;stroke:#b0b0b0;stroke-width:0.8;stroke-linecap:square;stroke-linejoin:round;stroke-miterlimit:10;stroke-dasharray:none;stroke-opacity:1"
           id="path10146" /></g></g><g
       id="g10148"><path
         d="m 56.405,185.58 v -3.5"
         style="fill:#000000;fill-opacity:1;fill-rule:nonzero;stroke:#000000;stroke-width:0.8;stroke-linecap:butt;stroke-linejoin:round;stroke-miterlimit:10;stroke-dasharray:none;stroke-opacity:1"
         id="path10150" /><text
         transform="matrix(1,0,0,-1,53.225313,170.98625)"
         style="font-variant:normal;font-weight:normal;font-size:10px;font-family:'DejaVu Sans Mono for Powerline';-inkscape-font-specification:DejaVuSans;writing-mode:lr-tb;fill:#000000;fill-opacity:1;fill-rule:nonzero;stroke:none"
         id="text10154"><tspan
           x="0"
           y="0"
           id="tspan10152">0</tspan></text></g><g
       id="g10156"><g
         id="g10158"
         clip-path="url(#clipPath10162)"><path
           d="m 138.82292,185.58 v 90.74"
           style="fill:none;stroke:#b0b0b0;stroke-width:0.8;stroke-linecap:square;stroke-linejoin:round;stroke-miterlimit:10;stroke-dasharray:none;stroke-opacity:1"
           id="path10164" /></g></g><g
       id="g10166"><path
         d="m 138.82292,185.58 v -3.5"
         style="fill:#000000;fill-opacity:1;fill-rule:nonzero;stroke:#000000;stroke-width:0.8;stroke-linecap:butt;stroke-linejoin:round;stroke-miterlimit:10;stroke-dasharray:none;stroke-opacity:1"
         id="path10168" /><text
         transform="matrix(1,0,0,-1,126.10417,170.98625)"
         style="font-variant:normal;font-weight:normal;font-size:10px;font-family:'DejaVu Sans Mono for Powerline';-inkscape-font-specification:DejaVuSans;writing-mode:lr-tb;fill:#000000;fill-opacity:1;fill-rule:nonzero;stroke:none"
         id="text10172"><tspan
           x="0 6.3600001 12.72 19.08"
           y="0"
           sodipodi:role="line"
           id="tspan10170">1000</tspan></text></g><g
       id="g10174"><g
         id="g10176"
         clip-path="url(#clipPath10180)"><path
           d="m 221.24083,185.58 v 90.74"
           style="fill:none;stroke:#b0b0b0;stroke-width:0.8;stroke-linecap:square;stroke-linejoin:round;stroke-miterlimit:10;stroke-dasharray:none;stroke-opacity:1"
           id="path10182" /></g></g><g
       id="g10184"><path
         d="m 221.24083,185.58 v -3.5"
         style="fill:#000000;fill-opacity:1;fill-rule:nonzero;stroke:#000000;stroke-width:0.8;stroke-linecap:butt;stroke-linejoin:round;stroke-miterlimit:10;stroke-dasharray:none;stroke-opacity:1"
         id="path10186" /><text
         transform="matrix(1,0,0,-1,208.52208,170.98625)"
         style="font-variant:normal;font-weight:normal;font-size:10px;font-family:'DejaVu Sans Mono for Powerline';-inkscape-font-specification:DejaVuSans;writing-mode:lr-tb;fill:#000000;fill-opacity:1;fill-rule:nonzero;stroke:none"
         id="text10190"><tspan
           x="0 6.3600001 12.72 19.08"
           y="0"
           sodipodi:role="line"
           id="tspan10188">2000</tspan></text></g><g
       id="g10192"><g
         id="g10194"
         clip-path="url(#clipPath10198)"><path
           d="m 303.65875,185.58 v 90.74"
           style="fill:none;stroke:#b0b0b0;stroke-width:0.8;stroke-linecap:square;stroke-linejoin:round;stroke-miterlimit:10;stroke-dasharray:none;stroke-opacity:1"
           id="path10200" /></g></g><g
       id="g10202"><path
         d="m 303.65875,185.58 v -3.5"
         style="fill:#000000;fill-opacity:1;fill-rule:nonzero;stroke:#000000;stroke-width:0.8;stroke-linecap:butt;stroke-linejoin:round;stroke-miterlimit:10;stroke-dasharray:none;stroke-opacity:1"
         id="path10204" /><text
         transform="matrix(1,0,0,-1,290.94,170.98625)"
         style="font-variant:normal;font-weight:normal;font-size:10px;font-family:'DejaVu Sans Mono for Powerline';-inkscape-font-specification:DejaVuSans;writing-mode:lr-tb;fill:#000000;fill-opacity:1;fill-rule:nonzero;stroke:none"
         id="text10208"><tspan
           x="0 6.3600001 12.72 19.08"
           y="0"
           sodipodi:role="line"
           id="tspan10206">3000</tspan></text></g><g
       id="g10210"><g
         id="g10212"
         clip-path="url(#clipPath10216)"><path
           d="m 386.07667,185.58 v 90.74"
           style="fill:none;stroke:#b0b0b0;stroke-width:0.8;stroke-linecap:square;stroke-linejoin:round;stroke-miterlimit:10;stroke-dasharray:none;stroke-opacity:1"
           id="path10218" /></g></g><g
       id="g10220"><path
         d="m 386.07667,185.58 v -3.5"
         style="fill:#000000;fill-opacity:1;fill-rule:nonzero;stroke:#000000;stroke-width:0.8;stroke-linecap:butt;stroke-linejoin:round;stroke-miterlimit:10;stroke-dasharray:none;stroke-opacity:1"
         id="path10222" /><text
         transform="matrix(1,0,0,-1,373.35792,170.98625)"
         style="font-variant:normal;font-weight:normal;font-size:10px;font-family:'DejaVu Sans Mono for Powerline';-inkscape-font-specification:DejaVuSans;writing-mode:lr-tb;fill:#000000;fill-opacity:1;fill-rule:nonzero;stroke:none"
         id="text10226"><tspan
           x="0 6.3600001 12.72 19.08"
           y="0"
           sodipodi:role="line"
           id="tspan10224">4000</tspan></text></g><g
       id="g10228"><g
         id="g10230"
         clip-path="url(#clipPath10234)"><path
           d="m 468.49458,185.58 v 90.74"
           style="fill:none;stroke:#b0b0b0;stroke-width:0.8;stroke-linecap:square;stroke-linejoin:round;stroke-miterlimit:10;stroke-dasharray:none;stroke-opacity:1"
           id="path10236" /></g></g><g
       id="g10238"><path
         d="m 468.49458,185.58 v -3.5"
         style="fill:#000000;fill-opacity:1;fill-rule:nonzero;stroke:#000000;stroke-width:0.8;stroke-linecap:butt;stroke-linejoin:round;stroke-miterlimit:10;stroke-dasharray:none;stroke-opacity:1"
         id="path10240" /><text
         transform="matrix(1,0,0,-1,455.77583,170.98625)"
         style="font-variant:normal;font-weight:normal;font-size:10px;font-family:'DejaVu Sans Mono for Powerline';-inkscape-font-specification:DejaVuSans;writing-mode:lr-tb;fill:#000000;fill-opacity:1;fill-rule:nonzero;stroke:none"
         id="text10244"><tspan
           x="0 6.3600001 12.72 19.08"
           y="0"
           sodipodi:role="line"
           id="tspan10242">5000</tspan></text></g><g
       id="g10246"><g
         id="g10248"
         clip-path="url(#clipPath10252)"><path
           d="m 550.9125,185.58 v 90.74"
           style="fill:none;stroke:#b0b0b0;stroke-width:0.8;stroke-linecap:square;stroke-linejoin:round;stroke-miterlimit:10;stroke-dasharray:none;stroke-opacity:1"
           id="path10254" /></g></g><g
       id="g10256"><path
         d="m 550.9125,185.58 v -3.5"
         style="fill:#000000;fill-opacity:1;fill-rule:nonzero;stroke:#000000;stroke-width:0.8;stroke-linecap:butt;stroke-linejoin:round;stroke-miterlimit:10;stroke-dasharray:none;stroke-opacity:1"
         id="path10258" /><text
         transform="matrix(1,0,0,-1,538.19375,170.98625)"
         style="font-variant:normal;font-weight:normal;font-size:10px;font-family:'DejaVu Sans Mono for Powerline';-inkscape-font-specification:DejaVuSans;writing-mode:lr-tb;fill:#000000;fill-opacity:1;fill-rule:nonzero;stroke:none"
         id="text10262"><tspan
           x="0 6.3600001 12.72 19.08"
           y="0"
           sodipodi:role="line"
           id="tspan10260">6000</tspan></text><text
         transform="matrix(1,0,0,-1,265.46344,157.31437)"
         style="font-variant:normal;font-weight:normal;font-size:10px;font-family:'DejaVu Sans Mono for Powerline';-inkscape-font-specification:DejaVuSans;writing-mode:lr-tb;fill:#000000;fill-opacity:1;fill-rule:nonzero;stroke:none"
         id="text10266"><tspan
           x="0 5.75 9.8599997 16.01 22.360001 28.700001 34.849998 41.189999 46.689999 52.610001 55.790001 59.689999 67.209999 72.459999"
           y="0"
           sodipodi:role="line"
           id="tspan10264">Frequency [Hz]</tspan></text></g><g
       id="g10268"><g
         id="g10270"
         clip-path="url(#clipPath10274)"><path
           d="M 56.405,204.85918 H 550.9125"
           style="fill:none;stroke:#b0b0b0;stroke-width:0.8;stroke-linecap:square;stroke-linejoin:round;stroke-miterlimit:10;stroke-dasharray:none;stroke-opacity:1"
           id="path10276" /></g></g><g
       id="g10278"><path
         d="m 56.405,204.85918 h -3.5"
         style="fill:#000000;fill-opacity:1;fill-rule:nonzero;stroke:#000000;stroke-width:0.8;stroke-linecap:butt;stroke-linejoin:round;stroke-miterlimit:10;stroke-dasharray:none;stroke-opacity:1"
         id="path10280" /><g
         id="g10282"
         transform="translate(21.951875,201.06231)"><text
           transform="matrix(1,0,0,-1,8.3789063,0)"
           style="font-variant:normal;font-weight:normal;font-size:10px;font-family:'DejaVu Sans Mono for Powerline';-inkscape-font-specification:DejaVuSans;writing-mode:lr-tb;fill:#000000;fill-opacity:1;fill-rule:nonzero;stroke:none"
           id="text10286"><tspan
             x="0 6.3600001 12.72"
             y="0"
             sodipodi:role="line"
             id="tspan10284">500</tspan></text><g
           id="g10288"
           transform="scale(0.01)"><g
             id="g10290"><g
               id="g10292"
               clip-path="url(#clipPath10296)"><path
                 d="M 106,355 H 732 V 272 H 106 v 83"
                 style="fill:#000000;fill-opacity:1;fill-rule:nonzero;stroke:none"
                 id="path10298" /></g></g></g></g></g><g
       id="g10300"><g
         id="g10302"
         clip-path="url(#clipPath10306)"><path
           d="M 56.405,228.56752 H 550.9125"
           style="fill:none;stroke:#b0b0b0;stroke-width:0.8;stroke-linecap:square;stroke-linejoin:round;stroke-miterlimit:10;stroke-dasharray:none;stroke-opacity:1"
           id="path10308" /></g></g><g
       id="g10310"><path
         d="m 56.405,228.56752 h -3.5"
         style="fill:#000000;fill-opacity:1;fill-rule:nonzero;stroke:#000000;stroke-width:0.8;stroke-linecap:butt;stroke-linejoin:round;stroke-miterlimit:10;stroke-dasharray:none;stroke-opacity:1"
         id="path10312" /><g
         id="g10314"
         transform="translate(21.951875,224.77065)"><text
           transform="matrix(1,0,0,-1,8.3789063,0)"
           style="font-variant:normal;font-weight:normal;font-size:10px;font-family:'DejaVu Sans Mono for Powerline';-inkscape-font-specification:DejaVuSans;writing-mode:lr-tb;fill:#000000;fill-opacity:1;fill-rule:nonzero;stroke:none"
           id="text10318"><tspan
             x="0 6.3600001 12.72"
             y="0"
             sodipodi:role="line"
             id="tspan10316">250</tspan></text><g
           id="g10320"
           transform="scale(0.01)"><g
             id="g10322"><g
               id="g10324"
               clip-path="url(#clipPath10328)"><path
                 d="M 106,355 H 732 V 272 H 106 v 83"
                 style="fill:#000000;fill-opacity:1;fill-rule:nonzero;stroke:none"
                 id="path10330" /></g></g></g></g></g><g
       id="g10332"><g
         id="g10334"
         clip-path="url(#clipPath10338)"><path
           d="M 56.405,252.27586 H 550.9125"
           style="fill:none;stroke:#b0b0b0;stroke-width:0.8;stroke-linecap:square;stroke-linejoin:round;stroke-miterlimit:10;stroke-dasharray:none;stroke-opacity:1"
           id="path10340" /></g></g><g
       id="g10342"><path
         d="m 56.405,252.27586 h -3.5"
         style="fill:#000000;fill-opacity:1;fill-rule:nonzero;stroke:#000000;stroke-width:0.8;stroke-linecap:butt;stroke-linejoin:round;stroke-miterlimit:10;stroke-dasharray:none;stroke-opacity:1"
         id="path10344" /><text
         transform="matrix(1,0,0,-1,43.045625,248.47899)"
         style="font-variant:normal;font-weight:normal;font-size:10px;font-family:'DejaVu Sans Mono for Powerline';-inkscape-font-specification:DejaVuSans;writing-mode:lr-tb;fill:#000000;fill-opacity:1;fill-rule:nonzero;stroke:none"
         id="text10348"><tspan
           x="0"
           y="0"
           id="tspan10346">0</tspan></text></g><g
       id="g10350"><g
         id="g10352"
         clip-path="url(#clipPath10356)"><path
           d="M 56.405,275.9842 H 550.9125"
           style="fill:none;stroke:#b0b0b0;stroke-width:0.8;stroke-linecap:square;stroke-linejoin:round;stroke-miterlimit:10;stroke-dasharray:none;stroke-opacity:1"
           id="path10358" /></g></g><g
       id="g10360"><path
         d="m 56.405,275.9842 h -3.5"
         style="fill:#000000;fill-opacity:1;fill-rule:nonzero;stroke:#000000;stroke-width:0.8;stroke-linecap:butt;stroke-linejoin:round;stroke-miterlimit:10;stroke-dasharray:none;stroke-opacity:1"
         id="path10362" /><text
         transform="matrix(1,0,0,-1,30.326875,272.18733)"
         style="font-variant:normal;font-weight:normal;font-size:10px;font-family:'DejaVu Sans Mono for Powerline';-inkscape-font-specification:DejaVuSans;writing-mode:lr-tb;fill:#000000;fill-opacity:1;fill-rule:nonzero;stroke:none"
         id="text10366"><tspan
           x="0 6.3600001 12.72"
           y="0"
           sodipodi:role="line"
           id="tspan10364">250</tspan></text><text
         transform="matrix(0,1,1,0,16.28,198.40312)"
         style="font-variant:normal;font-weight:normal;font-size:8px;font-family:'DejaVu Sans Mono for Powerline';-inkscape-font-specification:DejaVuSans;writing-mode:lr-tb;fill:#000000;fill-opacity:1;fill-rule:nonzero;stroke:none"
         id="text10370"><tspan
           x="0 4.8239999 9.8959999 14.8 18.968 23.888 26.431999 29.552 34.632 39.551998 44.632 47.919998 52.84 57.759998 61.928001"
           y="0"
           sodipodi:role="line"
           id="tspan10368">Phase [degrees]</tspan></text></g><g
       id="g10372"><g
         id="g10374"
         clip-path="url(#clipPath10378)"><path
           d="m 66.445388,268.51266 3.346796,0.0319 3.346795,-0.86021 3.346796,-1.12144 3.346796,0.37712 3.346796,-0.61093 3.346796,-0.41325 3.346796,-0.71843 3.346796,0.34206 3.346796,-0.32478 3.346796,0.0118 3.346793,-0.12069 6.69359,-1.26712 3.3468,-0.36866 3.3468,-0.084 3.34679,-0.69416 3.3468,-0.48497 3.34679,0.24567 3.3468,-0.10006 3.3468,0.91663 3.34679,0.30971 6.69359,-2.23861 3.3468,0.4926 3.34679,0.20352 3.3468,-0.14964 3.3468,-1.33279 3.34679,-1.49203 3.3468,-1.17623 6.69359,0.6522 3.3468,2.79486 3.34679,2.39861 3.3468,0.44501 3.34679,-0.44501 3.3468,-2.09898 3.34679,-1.07828 3.3468,-0.77813 3.3468,-1.30555 10.04038,-3.58628 3.3468,-1.82718 6.69359,-2.90822 3.3468,-2.88083 3.34679,-2.16463 3.3468,0.0226 3.3468,0.16691 3.34679,-0.5119 3.3468,4.29305 3.34679,-15.23487 3.3468,-7.25566 3.3468,16.76328 3.34679,-8.77128 3.3468,-6.08925 3.34679,-5.3708 3.3468,-4.49893 3.34679,-0.68983 3.3468,-5.11555 6.69359,-1.44872 3.3468,-1.21695 3.34679,-1.39354 3.3468,-0.55103 3.3468,5.9418 3.34679,-0.78901 3.3468,-1.13569 3.34679,-0.72652 3.3468,-0.36187 3.3468,-1.32523 3.34679,-1.18461 3.3468,-0.87704 3.34679,0.20822 3.3468,0.77603 3.34679,-0.17017 6.6936,-1.23403 3.34679,0.46051 3.3468,2.116 3.34679,3.26562 3.3468,0.42798 3.3468,-0.35596 3.34679,-0.95399 6.69359,-3.38849 3.3468,-2.22459 3.3468,-1.67051 3.34679,5.67668 3.3468,1.35203 3.34679,-0.3565 3.3468,0.10947 3.34679,-0.62359 3.3468,-0.46788 6.69359,-0.40439 3.3468,0.75951 3.34679,0.91376 10.04039,0.026 16.73398,-0.77563 6.69359,0.1456 20.08078,-0.55104 3.34679,-0.0351 10.04039,-0.53283 3.3468,-0.0588 6.69359,0.20258 3.3468,0.16398 6.69359,0.0137 13.38718,-0.26012 13.38718,0.35444 6.6936,0.14402 6.69359,0.27793 13.38718,0.21915 10.04039,0.10277 3.3468,-0.0222 v 0"
           style="fill:none;stroke:#000000;stroke-width:1.5;stroke-linecap:square;stroke-linejoin:round;stroke-miterlimit:10;stroke-dasharray:none;stroke-opacity:1"
           id="path10380" /></g></g><g
       id="g10382"><g
         id="g10384"
         clip-path="url(#clipPath10388)"><path
           d="m 66.445388,269.04833 3.346796,0.25915 3.346795,-0.25556 3.346796,0.29697 3.346796,0.16486 3.346796,-0.36233 6.693592,0.0108 3.346796,0.35837 3.346796,0.10518 3.346796,-0.14566 13.387183,0.62853 6.69359,-0.77901 3.3468,-0.22958 3.34679,0.0168 3.3468,-0.39483 3.3468,-0.11995 3.34679,0.16359 3.3468,-0.75695 3.34679,0.26585 3.3468,0.68588 3.34679,0.47402 3.3468,-0.69054 6.69359,-0.83617 6.69359,-2.07479 3.3468,0.21168 3.3468,-0.0409 3.34679,2.08345 3.3468,3.05185 3.34679,1.05647 6.69359,-1.25164 6.6936,-2.26325 3.34679,-2.3281 3.3468,-2.00151 3.34679,-1.59277 3.3468,-1.00219 6.69359,-2.96995 3.3468,2.35062 3.34679,1.43929 3.3468,-7.90977 3.3468,9.00336 6.69359,-2.62025 3.34679,4.62141 3.3468,-16.4957 6.69359,-14.4947 3.3468,-5.75024 3.34679,-2.03764 3.3468,-0.81963 3.34679,-2.75307 3.3468,-0.47922 3.3468,-1.06988 3.34679,-1.91817 3.3468,-0.60568 3.34679,0.49856 3.3468,1.28651 3.3468,1.92668 3.34679,-0.87842 3.3468,-1.40502 3.34679,0.0465 3.3468,-0.64106 3.3468,-1.07717 3.34679,-0.68239 3.3468,-0.38503 3.34679,0.42038 3.3468,-0.27382 3.34679,-1.34615 3.3468,-0.57 3.3468,10.993 3.34679,-0.34076 3.3468,-1.06131 3.34679,-0.60397 3.3468,-1.12989 3.3468,-2.30348 3.34679,-3.63193 3.3468,-4.8772 3.34679,-16.80365 3.3468,-2.8477 3.3468,-1.43191 3.34679,-0.51382 3.3468,-0.11701 3.34679,-0.62162 3.3468,-0.21799 3.34679,0.20612 3.3468,0.85804 3.3468,0.50257 3.34679,-0.13907 3.3468,-0.34146 3.34679,-0.65546 3.3468,-0.35826 6.69359,-0.15179 3.3468,-0.1831 3.34679,0.0606 6.6936,-0.47294 6.69359,-0.24595 6.69359,0.0276 3.34679,-0.0595 3.3468,0.1621 6.69359,-0.10677 6.69359,0.14875 6.6936,0.48675 6.69359,-0.22466 16.73398,0.35072 10.04038,0.7172 6.6936,0.23835 10.04038,0.37424 10.04039,0.0294 6.69359,0.0711 13.38719,-0.15423 10.04039,-0.0184 v 0"
           style="fill:none;stroke:#0000ff;stroke-width:1.5;stroke-linecap:square;stroke-linejoin:round;stroke-miterlimit:10;stroke-dasharray:none;stroke-opacity:1"
           id="path10390" /></g></g><g
       id="g10392"><path
         d="m 56.405,185.58 v 90.74"
         style="fill:none;stroke:#000000;stroke-width:0.8;stroke-linecap:square;stroke-linejoin:miter;stroke-miterlimit:10;stroke-dasharray:none;stroke-opacity:1"
         id="path10394" /><path
         d="m 550.9125,185.58 v 90.74"
         style="fill:none;stroke:#000000;stroke-width:0.8;stroke-linecap:square;stroke-linejoin:miter;stroke-miterlimit:10;stroke-dasharray:none;stroke-opacity:1"
         id="path10396" /><path
         d="M 56.405,185.58 H 550.9125"
         style="fill:none;stroke:#000000;stroke-width:0.8;stroke-linecap:square;stroke-linejoin:miter;stroke-miterlimit:10;stroke-dasharray:none;stroke-opacity:1"
         id="path10398" /><path
         d="M 56.405,276.32 H 550.9125"
         style="fill:none;stroke:#000000;stroke-width:0.8;stroke-linecap:square;stroke-linejoin:miter;stroke-miterlimit:10;stroke-dasharray:none;stroke-opacity:1"
         id="path10400" /><text
         transform="matrix(1,0,0,-1,526.18712,262.709)"
         style="font-variant:normal;font-weight:normal;font-size:12px;font-family:'DejaVu Sans Mono for Powerline';-inkscape-font-specification:DejaVuSans;writing-mode:lr-tb;fill:#000000;fill-opacity:1;fill-rule:nonzero;stroke:none"
         id="text10404"><tspan
           x="0 7.6199999"
           y="0"
           sodipodi:role="line"
           id="tspan10402">b)</tspan></text><path
         d="M 56.405,41.96 H 550.9125 V 132.7 H 56.405 Z"
         style="fill:#ffffff;fill-opacity:1;fill-rule:nonzero;stroke:none"
         id="path10406" /></g><g
       id="g10408"><g
         id="g10410"
         clip-path="url(#clipPath10414)"><path
           d="M 56.405,41.96 V 132.7"
           style="fill:none;stroke:#b0b0b0;stroke-width:0.8;stroke-linecap:square;stroke-linejoin:round;stroke-miterlimit:10;stroke-dasharray:none;stroke-opacity:1"
           id="path10416" /></g></g><g
       id="g10418"><path
         d="m 56.405,41.96 v -3.5"
         style="fill:#000000;fill-opacity:1;fill-rule:nonzero;stroke:#000000;stroke-width:0.8;stroke-linecap:butt;stroke-linejoin:round;stroke-miterlimit:10;stroke-dasharray:none;stroke-opacity:1"
         id="path10420" /><text
         transform="matrix(1,0,0,-1,42.0925,27.36625)"
         style="font-variant:normal;font-weight:normal;font-size:10px;font-family:'DejaVu Sans Mono for Powerline';-inkscape-font-specification:DejaVuSans;writing-mode:lr-tb;fill:#000000;fill-opacity:1;fill-rule:nonzero;stroke:none"
         id="text10424"><tspan
           x="0 6.3600001 9.54 15.9 22.26"
           y="0"
           sodipodi:role="line"
           id="tspan10422">0.000</tspan></text></g><g
       id="g10426"><g
         id="g10428"
         clip-path="url(#clipPath10432)"><path
           d="M 155.3065,41.96 V 132.7"
           style="fill:none;stroke:#b0b0b0;stroke-width:0.8;stroke-linecap:square;stroke-linejoin:round;stroke-miterlimit:10;stroke-dasharray:none;stroke-opacity:1"
           id="path10434" /></g></g><g
       id="g10436"><path
         d="m 155.3065,41.96 v -3.5"
         style="fill:#000000;fill-opacity:1;fill-rule:nonzero;stroke:#000000;stroke-width:0.8;stroke-linecap:butt;stroke-linejoin:round;stroke-miterlimit:10;stroke-dasharray:none;stroke-opacity:1"
         id="path10438" /><text
         transform="matrix(1,0,0,-1,140.994,27.36625)"
         style="font-variant:normal;font-weight:normal;font-size:10px;font-family:'DejaVu Sans Mono for Powerline';-inkscape-font-specification:DejaVuSans;writing-mode:lr-tb;fill:#000000;fill-opacity:1;fill-rule:nonzero;stroke:none"
         id="text10442"><tspan
           x="0 6.3600001 9.54 15.9 22.26"
           y="0"
           sodipodi:role="line"
           id="tspan10440">0.005</tspan></text></g><g
       id="g10444"><g
         id="g10446"
         clip-path="url(#clipPath10450)"><path
           d="M 254.208,41.96 V 132.7"
           style="fill:none;stroke:#b0b0b0;stroke-width:0.8;stroke-linecap:square;stroke-linejoin:round;stroke-miterlimit:10;stroke-dasharray:none;stroke-opacity:1"
           id="path10452" /></g></g><g
       id="g10454"><path
         d="m 254.208,41.96 v -3.5"
         style="fill:#000000;fill-opacity:1;fill-rule:nonzero;stroke:#000000;stroke-width:0.8;stroke-linecap:butt;stroke-linejoin:round;stroke-miterlimit:10;stroke-dasharray:none;stroke-opacity:1"
         id="path10456" /><text
         transform="matrix(1,0,0,-1,239.8955,27.36625)"
         style="font-variant:normal;font-weight:normal;font-size:10px;font-family:'DejaVu Sans Mono for Powerline';-inkscape-font-specification:DejaVuSans;writing-mode:lr-tb;fill:#000000;fill-opacity:1;fill-rule:nonzero;stroke:none"
         id="text10460"><tspan
           x="0 6.3600001 9.54 15.9 22.26"
           y="0"
           sodipodi:role="line"
           id="tspan10458">0.010</tspan></text></g><g
       id="g10462"><g
         id="g10464"
         clip-path="url(#clipPath10468)"><path
           d="M 353.1095,41.96 V 132.7"
           style="fill:none;stroke:#b0b0b0;stroke-width:0.8;stroke-linecap:square;stroke-linejoin:round;stroke-miterlimit:10;stroke-dasharray:none;stroke-opacity:1"
           id="path10470" /></g></g><g
       id="g10472"><path
         d="m 353.1095,41.96 v -3.5"
         style="fill:#000000;fill-opacity:1;fill-rule:nonzero;stroke:#000000;stroke-width:0.8;stroke-linecap:butt;stroke-linejoin:round;stroke-miterlimit:10;stroke-dasharray:none;stroke-opacity:1"
         id="path10474" /><text
         transform="matrix(1,0,0,-1,338.797,27.36625)"
         style="font-variant:normal;font-weight:normal;font-size:10px;font-family:'DejaVu Sans Mono for Powerline';-inkscape-font-specification:DejaVuSans;writing-mode:lr-tb;fill:#000000;fill-opacity:1;fill-rule:nonzero;stroke:none"
         id="text10478"><tspan
           x="0 6.3600001 9.54 15.9 22.26"
           y="0"
           sodipodi:role="line"
           id="tspan10476">0.015</tspan></text></g><g
       id="g10480"><g
         id="g10482"
         clip-path="url(#clipPath10486)"><path
           d="M 452.011,41.96 V 132.7"
           style="fill:none;stroke:#b0b0b0;stroke-width:0.8;stroke-linecap:square;stroke-linejoin:round;stroke-miterlimit:10;stroke-dasharray:none;stroke-opacity:1"
           id="path10488" /></g></g><g
       id="g10490"><path
         d="m 452.011,41.96 v -3.5"
         style="fill:#000000;fill-opacity:1;fill-rule:nonzero;stroke:#000000;stroke-width:0.8;stroke-linecap:butt;stroke-linejoin:round;stroke-miterlimit:10;stroke-dasharray:none;stroke-opacity:1"
         id="path10492" /><text
         transform="matrix(1,0,0,-1,437.6985,27.36625)"
         style="font-variant:normal;font-weight:normal;font-size:10px;font-family:'DejaVu Sans Mono for Powerline';-inkscape-font-specification:DejaVuSans;writing-mode:lr-tb;fill:#000000;fill-opacity:1;fill-rule:nonzero;stroke:none"
         id="text10496"><tspan
           x="0 6.3600001 9.54 15.9 22.26"
           y="0"
           sodipodi:role="line"
           id="tspan10494">0.020</tspan></text></g><g
       id="g10498"><g
         id="g10500"
         clip-path="url(#clipPath10504)"><path
           d="M 550.9125,41.96 V 132.7"
           style="fill:none;stroke:#b0b0b0;stroke-width:0.8;stroke-linecap:square;stroke-linejoin:round;stroke-miterlimit:10;stroke-dasharray:none;stroke-opacity:1"
           id="path10506" /></g></g><g
       id="g10508"><path
         d="m 550.9125,41.96 v -3.5"
         style="fill:#000000;fill-opacity:1;fill-rule:nonzero;stroke:#000000;stroke-width:0.8;stroke-linecap:butt;stroke-linejoin:round;stroke-miterlimit:10;stroke-dasharray:none;stroke-opacity:1"
         id="path10510" /><text
         transform="matrix(1,0,0,-1,536.6,27.36625)"
         style="font-variant:normal;font-weight:normal;font-size:10px;font-family:'DejaVu Sans Mono for Powerline';-inkscape-font-specification:DejaVuSans;writing-mode:lr-tb;fill:#000000;fill-opacity:1;fill-rule:nonzero;stroke:none"
         id="text10514"><tspan
           x="0 6.3600001 9.54 15.9 22.26"
           y="0"
           sodipodi:role="line"
           id="tspan10512">0.025</tspan></text><text
         transform="matrix(1,0,0,-1,283.15094,13.694375)"
         style="font-variant:normal;font-weight:normal;font-size:10px;font-family:'DejaVu Sans Mono for Powerline';-inkscape-font-specification:DejaVuSans;writing-mode:lr-tb;fill:#000000;fill-opacity:1;fill-rule:nonzero;stroke:none"
         id="text10518"><tspan
           x="0 6.1100001 8.8900003 18.629999 24.780001 27.959999 31.860001 37.07"
           y="0"
           sodipodi:role="line"
           id="tspan10516">Time [s]</tspan></text></g><g
       id="g10520"><g
         id="g10522"
         clip-path="url(#clipPath10526)"><path
           d="M 56.405,43.06346 H 550.9125"
           style="fill:none;stroke:#b0b0b0;stroke-width:0.8;stroke-linecap:square;stroke-linejoin:round;stroke-miterlimit:10;stroke-dasharray:none;stroke-opacity:1"
           id="path10528" /></g></g><g
       id="g10530"><path
         d="m 56.405,43.06346 h -3.5"
         style="fill:#000000;fill-opacity:1;fill-rule:nonzero;stroke:#000000;stroke-width:0.8;stroke-linecap:butt;stroke-linejoin:round;stroke-miterlimit:10;stroke-dasharray:none;stroke-opacity:1"
         id="path10532" /><g
         id="g10534"
         transform="translate(25.12375,39.266585)"><text
           transform="matrix(1,0,0,-1,8.3789063,0)"
           style="font-variant:normal;font-weight:normal;font-size:10px;font-family:'DejaVu Sans Mono for Powerline';-inkscape-font-specification:DejaVuSans;writing-mode:lr-tb;fill:#000000;fill-opacity:1;fill-rule:nonzero;stroke:none"
           id="text10538"><tspan
             x="0 6.3600001 9.54"
             y="0"
             sodipodi:role="line"
             id="tspan10536">0.5</tspan></text><g
           id="g10540"
           transform="scale(0.01)"><g
             id="g10542"><g
               id="g10544"
               clip-path="url(#clipPath10548)"><path
                 d="M 106,355 H 732 V 272 H 106 v 83"
                 style="fill:#000000;fill-opacity:1;fill-rule:nonzero;stroke:none"
                 id="path10550" /></g></g></g></g></g><g
       id="g10552"><g
         id="g10554"
         clip-path="url(#clipPath10558)"><path
           d="M 56.405,87.123609 H 550.9125"
           style="fill:none;stroke:#b0b0b0;stroke-width:0.8;stroke-linecap:square;stroke-linejoin:round;stroke-miterlimit:10;stroke-dasharray:none;stroke-opacity:1"
           id="path10560" /></g></g><g
       id="g10562"><path
         d="m 56.405,87.123609 h -3.5"
         style="fill:#000000;fill-opacity:1;fill-rule:nonzero;stroke:#000000;stroke-width:0.8;stroke-linecap:butt;stroke-linejoin:round;stroke-miterlimit:10;stroke-dasharray:none;stroke-opacity:1"
         id="path10564" /><text
         transform="matrix(1,0,0,-1,33.49875,83.326734)"
         style="font-variant:normal;font-weight:normal;font-size:10px;font-family:'DejaVu Sans Mono for Powerline';-inkscape-font-specification:DejaVuSans;writing-mode:lr-tb;fill:#000000;fill-opacity:1;fill-rule:nonzero;stroke:none"
         id="text10568"><tspan
           x="0 6.3600001 9.54"
           y="0"
           sodipodi:role="line"
           id="tspan10566">0.0</tspan></text></g><g
       id="g10570"><g
         id="g10572"
         clip-path="url(#clipPath10576)"><path
           d="M 56.405,131.18376 H 550.9125"
           style="fill:none;stroke:#b0b0b0;stroke-width:0.8;stroke-linecap:square;stroke-linejoin:round;stroke-miterlimit:10;stroke-dasharray:none;stroke-opacity:1"
           id="path10578" /></g></g><g
       id="g10580"><path
         d="m 56.405,131.18376 h -3.5"
         style="fill:#000000;fill-opacity:1;fill-rule:nonzero;stroke:#000000;stroke-width:0.8;stroke-linecap:butt;stroke-linejoin:round;stroke-miterlimit:10;stroke-dasharray:none;stroke-opacity:1"
         id="path10582" /><text
         transform="matrix(1,0,0,-1,33.49875,127.38688)"
         style="font-variant:normal;font-weight:normal;font-size:10px;font-family:'DejaVu Sans Mono for Powerline';-inkscape-font-specification:DejaVuSans;writing-mode:lr-tb;fill:#000000;fill-opacity:1;fill-rule:nonzero;stroke:none"
         id="text10586"><tspan
           x="0 6.3600001 9.54"
           y="0"
           sodipodi:role="line"
           id="tspan10584">0.5</tspan></text><text
         transform="matrix(0,1,1,0,19.451875,79.626875)"
         style="font-variant:normal;font-weight:normal;font-size:8px;font-family:'DejaVu Sans Mono for Powerline';-inkscape-font-specification:DejaVuSans;writing-mode:lr-tb;fill:#000000;fill-opacity:1;fill-rule:nonzero;stroke:none"
         id="text10590"><tspan
           x="0 6.0159998 9.1359997 12.272"
           y="0"
           sodipodi:role="line"
           id="tspan10588">H(t)</tspan></text><g
         id="g10592"
         transform="translate(56.405,135.7)"><text
           transform="scale(1,-1)"
           style="font-variant:normal;font-weight:normal;font-size:10px;font-family:'DejaVu Sans Mono for Powerline';-inkscape-font-specification:DejaVuSans;writing-mode:lr-tb;fill:#000000;fill-opacity:1;fill-rule:nonzero;stroke:none"
           id="text10596"><tspan
             x="0 6.3600001 20.893555 27.253555"
             y="0"
             sodipodi:role="line"
             id="tspan10594">1e21</tspan></text><g
           id="g10598"
           transform="matrix(0.01,0,0,0.01,12.514648,0)"><g
             id="g10600"><g
               id="g10602"
               clip-path="url(#clipPath10606)"><path
                 d="M 106,355 H 732 V 272 H 106 v 83"
                 style="fill:#000000;fill-opacity:1;fill-rule:nonzero;stroke:none"
                 id="path10608" /></g></g></g></g></g><g
       id="g10610"><g
         id="g10612"
         clip-path="url(#clipPath10616)"><path
           d="m 56.429358,128.57545 0.491036,-7.32064 0.654715,-13.894 2.291503,-55.009014 0.491036,-5.155564 0.327358,-1.111687 0.163678,0.165874 0.163679,0.641671 0.327358,2.649919 0.491036,6.972061 0.818394,16.749947 1.30943,26.896693 0.491036,6.65348 0.327358,2.74714 0.327357,1.22316 0.163679,0.0209 0.163679,-0.3691 0.327358,-1.84764 0.491036,-5.09193 1.636788,-20.101035 0.327357,-1.701337 0.327358,-0.599951 0.163678,0.07353 0.327358,0.764354 0.491036,2.209937 0.982073,4.992818 0.327357,0.999549 0.327358,0.398712 0.163679,-0.05387 0.327357,-0.639703 0.327358,-1.342729 0.491036,-3.191501 1.964145,-15.134955 0.327358,-0.506 0.163679,0.164023 0.327357,1.23251 0.327358,2.472573 0.491036,5.917983 0.818394,14.112206 0.982073,17.324826 0.491036,5.67841 0.327357,1.90942 0.163679,0.30901 0.163679,-0.14366 0.163679,-0.60455 0.327357,-2.58963 0.491037,-7.13974 0.654715,-14.299848 1.473109,-35.116051 0.491036,-6.974241 0.327357,-2.386606 0.163679,-0.4659 0.163679,0.02511 0.163679,0.512885 0.327357,2.446653 0.491037,6.917004 0.654715,13.897781 1.800466,41.793013 0.491036,6.29121 0.327358,2.13102 0.163679,0.4134 0.163679,-0.0238 0.163678,-0.45641 0.327358,-2.1681 0.491036,-6.11319 0.654715,-12.31258 1.800467,-38.146166 0.491036,-5.897279 0.327358,-1.931332 0.163678,-0.318371 0.163679,0.119629 0.163679,0.554156 0.327357,2.364001 0.491037,6.331635 0.818394,15.371031 0.982072,18.392394 0.491036,5.954482 0.327358,2.09298 0.163679,0.42806 0.163679,0.009 0.163678,-0.40519 0.327358,-1.99145 0.491036,-5.506439 0.982073,-15.510911 0.654715,-8.918889 0.491036,-3.729289 0.163679,-0.507928 0.163679,-0.113446 0.163678,0.284752 0.32736,1.735428 0.49103,5.18731 0.8184,12.771545 0.81839,11.934577 0.49104,4.0674 0.32736,0.8774 0.16368,-0.14775 0.32735,-1.44879 0.32736,-2.87415 0.49104,-6.47391 1.96414,-29.92437 0.32736,-2.328782 0.32736,-0.979597 0.16368,0.03806 0.16367,0.391735 0.32736,1.820483 0.49104,5.109951 0.65471,10.205021 1.47311,25.048389 0.49104,4.85344 0.32736,1.44437 0.16367,0.12635 0.16368,-0.28348 0.32736,-1.79681 0.32736,-3.37217 0.49104,-7.613551 0.98207,-20.262683 0.81839,-14.723289 0.49104,-4.756142 0.16368,-0.670111 0.16367,-0.179222 0.16368,0.317956 0.32736,2.105314 0.32736,3.934464 0.49104,8.689663 1.80046,36.043521 0.32736,3.10038 0.32736,1.2675 0.16367,-0.0707 0.16368,-0.53217 0.32736,-2.37556 0.49104,-6.38541 0.81839,-15.242329 0.98207,-18.05347 0.49104,-6.12233 0.32736,-2.466153 0.32736,-1.048812 0.16367,0.01468 0.16368,0.368022 0.32736,1.749369 0.49104,4.870245 0.65471,9.518134 1.47311,22.913924 0.49104,4.80287 0.32736,1.83107 0.32735,0.62306 0.16368,-0.15201 0.32736,-1.21725 0.32736,-2.37003 0.49103,-5.411642 0.98208,-14.695928 0.81839,-11.462769 0.49104,-4.473397 0.32735,-1.530103 0.16368,-0.284564 0.16368,0.04322 0.16368,0.369469 0.32736,1.682841 0.49103,4.609589 0.8184,11.212201 0.98207,13.258468 0.49104,4.244025 0.32735,1.49059 0.16368,0.30857 0.16368,0.0132 0.16368,-0.27922 0.32736,-1.40037 0.49103,-3.958999 0.65472,-7.686353 1.30943,-15.824226 0.49103,-3.57488 0.32736,-1.212233 0.16368,-0.226238 0.16368,0.03091 0.16368,0.286232 0.32736,1.312546 0.49103,3.631081 0.65472,7.106375 1.47311,16.742789 0.49103,3.081626 0.32736,0.87257 0.16368,0.0536 0.16368,-0.20511 0.32736,-1.17313 0.32735,-2.12885 0.49104,-4.69313 2.12782,-23.402839 0.32736,-1.355587 0.16368,-0.28247 0.16368,-0.01015 0.16368,0.263257 0.32735,1.328876 0.49104,3.819522 0.65472,7.59567 1.30943,16.16076 0.49103,3.707181 0.32736,1.24468 0.16368,0.22206 0.16368,-0.0488 0.16368,-0.31731 0.32735,-1.40919 0.49104,-3.835242 0.65472,-7.402674 1.30943,-15.758972 0.49103,-3.920913 0.32736,-1.554686 0.32736,-0.604828 0.16368,0.06522 0.16367,0.309819 0.32736,1.332298 0.49104,3.61811 0.65471,7.096566 1.47311,17.264573 0.49104,3.434789 0.32736,1.11239 0.16367,0.16499 0.16368,-0.10387 0.32736,-1.01363 0.32736,-2.04411 0.49104,-4.735513 0.98207,-12.854679 0.81839,-9.758219 0.49104,-3.581867 0.32736,-1.055398 0.16367,-0.09262 0.16368,0.201944 0.32736,1.271537 0.32736,2.353531 0.49103,5.208263 2.12783,25.658501 0.32736,1.51754 0.16367,0.34886 0.16368,0.0696 0.16368,-0.20865 0.32736,-1.22688 0.49104,-3.66688 0.65471,-7.40368 1.47311,-18.090948 0.49104,-3.715628 0.32735,-1.344883 0.16368,-0.302423 0.16368,-0.05043 0.16368,0.201052 0.32736,1.136612 0.49103,3.376687 0.65472,6.846443 1.47311,16.899552 0.49103,3.478466 0.32736,1.24814 0.16368,0.27386 0.16368,0.0357 0.16368,-0.20161 0.32736,-1.09361 0.49103,-3.198145 0.65472,-6.39628 1.47311,-15.274086 0.49103,-2.964922 0.32736,-0.99278 0.16368,-0.182495 0.16368,0.02772 0.16368,0.234798 0.32735,1.063665 0.49104,2.909614 0.65472,5.630204 1.4731,13.359404 0.49104,2.749212 0.32736,1.028371 0.32736,0.32509 0.16367,-0.105649 0.32736,-0.735879 0.32736,-1.392668 0.49104,-3.135449 0.81839,-6.983992 1.14575,-9.480799 0.49104,-2.565206 0.32735,-0.9274 0.16368,-0.204026 0.16368,-0.02522 0.16368,0.154737 0.32736,0.841121 0.49103,2.492365 0.65472,5.095116 1.63679,13.81076 0.49103,2.18029 0.32736,0.582393 0.16368,0.01265 0.16368,-0.174211 0.32736,-0.895429 0.49103,-2.588504 0.65472,-5.18755 1.47311,-12.652977 0.49103,-2.541651 0.32736,-0.866811 0.16368,-0.162226 0.16368,0.02251 0.16368,0.206737 0.32736,0.950324 0.49103,2.639619 0.65472,5.193953 1.4731,12.534237 0.49104,2.514432 0.32736,0.85787 0.16368,0.159726 0.16368,-0.02436 0.16368,-0.208544 0.32735,-0.95643 0.49104,-2.663891 0.65472,-5.264678 1.4731,-12.604863 0.49104,-2.380562 0.32736,-0.708636 0.16368,-0.06898 0.16367,0.124052 0.32736,0.817138 0.32736,1.528622 0.49104,3.404338 2.12782,17.171043 0.32736,1.093644 0.32735,0.365557 0.16368,-0.09718 0.32736,-0.742846 0.32736,-1.426447 0.49104,-3.208415 1.14575,-9.898462 0.81839,-5.992894 0.49104,-2.074397 0.32735,-0.562329 0.16368,-0.02013 0.16368,0.154723 0.32736,0.821592 0.49104,2.403244 0.65471,4.857672 1.47311,11.965276 0.49104,2.403334 0.32735,0.806946 0.16368,0.14195 0.16368,-0.03652 0.32736,-0.604336 0.32736,-1.278552 0.49103,-3.00184 0.8184,-6.789332 0.98207,-7.908405 0.49104,-2.618617 0.32735,-0.992676 0.32736,-0.324584 0.16368,0.09332 0.32736,0.685867 0.32735,1.307347 0.49104,2.93559 0.98207,7.801903 0.8184,6.100541 0.49103,2.542155 0.32736,1.030673 0.32736,0.438491 0.16368,-0.0092 0.32735,-0.4701 0.32736,-1.042299 0.49104,-2.492008 0.81839,-5.772659 1.14575,-8.059911 0.49104,-2.253857 0.32736,-0.8653 0.32735,-0.298389 0.16368,0.06854 0.32736,0.564075 0.32736,1.097461 0.49104,2.484634 0.98207,6.615676 0.81839,5.112291 0.49104,2.069088 0.32736,0.796786 0.32735,0.285821 0.16368,-0.05115 0.32736,-0.478611 0.32736,-0.943721 0.49103,-2.136855 0.98208,-5.667039 0.81839,-4.390715 0.49104,-1.815797 0.32735,-0.73564 0.32736,-0.318837 0.32736,0.103888 0.32736,0.510435 0.49103,1.44213 0.65472,2.853815 1.63679,7.575266 0.49103,1.266496 0.32736,0.411831 0.32736,0.04358 0.32735,-0.321265 0.32736,-0.662874 0.49104,-1.538243 0.98207,-4.197704 0.98207,-3.888433 0.49104,-1.226966 0.32736,-0.447464 0.32735,-0.129419 0.32736,0.186884 0.32736,0.484112 0.49104,1.204002 0.81839,2.835125 1.14575,4.026473 0.65472,1.466941 0.32735,0.376878 0.32736,0.117882 0.32736,-0.139924 0.32736,-0.383476 0.49103,-0.971446 0.8184,-2.327929 1.30943,-3.806138 0.49103,-0.939673 0.49104,-0.504267 0.32736,-0.06914 0.32735,0.147539 0.49104,0.60504 0.65472,1.398931 2.2915,5.691204 0.49103,0.405267 0.32736,-0.003 0.32736,-0.223539 0.49104,-0.719894 0.65471,-1.530208 1.96415,-5.109291 0.49103,-0.575305 0.32736,-0.111181 0.32736,0.117695 0.32736,0.342115 0.49103,0.894894 0.65472,1.738008 1.63678,4.752693 0.49104,0.851078 0.32736,0.294891 0.32736,0.0522 0.32735,-0.198131 0.32736,-0.443323 0.49104,-1.082248 0.65471,-2.036372 1.63679,-5.393974 0.49104,-0.88892 0.32735,-0.254588 0.32736,0.04511 0.32736,0.35184 0.49104,1.075219 0.65471,2.267248 1.80047,7.120958 0.49103,0.996738 0.32736,0.243195 0.32736,-0.122312 0.32736,-0.488649 0.49103,-1.368981 0.65472,-2.748346 1.63679,-7.475516 0.49103,-1.208114 0.32736,-0.333128 0.32736,0.07759 0.32735,0.490324 0.49104,1.454551 0.65472,2.987114 1.63678,8.203923 0.49104,1.33102 0.32736,0.371711 0.16368,0.01901 0.32735,-0.299913 0.32736,-0.736794 0.49104,-1.83248 0.81839,-4.367963 1.14575,-6.16962 0.49104,-1.677975 0.32736,-0.595871 0.32735,-0.128536 0.32736,0.350025 0.32736,0.811054 0.49104,1.97441 0.81839,4.615164 1.14575,6.337469 0.49104,1.649631 0.32735,0.546218 0.32736,0.06053 0.32736,-0.428966 0.32736,-0.892594 0.49103,-2.08395 0.8184,-4.71461 0.98207,-5.545016 0.49104,-1.86411 0.32735,-0.718617 0.32736,-0.247958 0.16368,0.05759 0.32736,0.472712 0.32735,0.921498 0.49104,2.094329 0.98207,5.622436 0.8184,4.373381 0.49103,1.755937 0.32736,0.652407 0.32736,0.191104 0.32736,-0.279871 0.32735,-0.732905 0.49104,-1.845075 0.81839,-4.397813 1.14576,-6.171628 0.49103,-1.67188 0.32736,-0.59719 0.32736,-0.138979 0.32736,0.326485 0.32735,0.771149 0.49104,1.879775 0.81839,4.371826 0.98207,5.257129 0.49104,1.814276 0.32736,0.728083 0.32736,0.292716 0.32735,-0.15632 0.32736,-0.592218 0.49104,-1.614174 0.65471,-3.13216 1.47311,-7.336457 0.49104,-1.382688 0.32736,-0.428776 0.32735,-0.0047 0.32736,0.416231 0.32736,0.809055 0.49103,1.832161 0.98208,4.879245 0.81839,3.741418 0.49104,1.467703 0.32735,0.52188 0.32736,0.119519 0.32736,-0.286975 0.32736,-0.672669 0.49103,-1.629823 0.8184,-3.75682 0.98207,-4.461926 0.49104,-1.516828 0.32735,-0.596761 0.32736,-0.224804 0.32736,0.156262 0.32736,0.523239 0.49103,1.388553 0.8184,3.38416 1.14575,4.794698 0.49103,1.326224 0.32736,0.500124 0.32736,0.163033 0.32736,-0.176721 0.32735,-0.498865 0.49104,-1.268151 0.81839,-3.000403 1.14576,-4.133827 0.49103,-1.111507 0.32736,-0.405993 0.32736,-0.116017 0.32736,0.173227 0.32735,0.444794 0.49104,1.100286 0.81839,2.555508 1.14575,3.460654 0.49104,0.911652 0.32736,0.323625 0.32736,0.07974 0.32735,-0.161704 0.49104,-0.655294 0.65471,-1.463511 1.80047,-4.506691 0.49104,-0.639466 0.32735,-0.192567 0.32736,5e-5 0.32736,0.185273 0.49104,0.585422 0.65471,1.205293 1.80047,3.573591 0.49103,0.522411 0.49104,0.203013 0.49104,-0.122625 0.49103,-0.41841 0.65472,-0.911158 2.12782,-3.372138 0.49104,-0.38147 0.49103,-0.123042 0.49104,0.142099 0.49104,0.387496 0.65471,0.821982 2.29151,3.328269 0.49103,0.306843 0.49104,0.04077 0.49103,-0.237651 0.49104,-0.50007 0.65472,-0.995886 1.96414,-3.340114 0.49104,-0.400507 0.49103,-0.07493 0.49104,0.273694 0.49104,0.604725 0.65471,1.213889 1.80047,3.650435 0.49103,0.481217 0.32736,0.102603 0.32736,-0.08474 0.32736,-0.271452 0.49103,-0.729598 0.65472,-1.434578 1.47311,-3.493243 0.49103,-0.682041 0.32736,-0.211802 0.32736,0.0039 0.32736,0.223996 0.49103,0.725939 0.65472,1.550483 1.63678,4.382651 0.49104,0.705977 0.32736,0.182732 0.32736,-0.06847 0.32735,-0.32064 0.49104,-0.918093 0.65472,-1.851712 1.4731,-4.551688 0.49104,-0.885173 0.32736,-0.272181 0.32736,0.0085 0.32735,0.292529 0.49104,0.935565 0.65471,1.97307 1.63679,5.447799 0.49104,0.851687 0.32736,0.213422 0.32735,-0.0906 0.32736,-0.391496 0.49104,-1.100083 0.65471,-2.185688 1.47311,-5.29234 0.49104,-1.035161 0.32736,-0.333468 0.32735,-0.02133 0.32736,0.292781 0.49104,0.986268 0.65471,2.113834 1.63679,5.944015 0.49104,0.989501 0.32735,0.295874 0.32736,-0.01645 0.32736,-0.325748 0.49103,-1.01643 0.65472,-2.098795 1.47311,-5.197568 0.49104,-1.046355 0.32735,-0.358093 0.32736,-0.06207 0.32736,0.234336 0.32736,0.513015 0.49103,1.212613 0.98207,3.32207 0.8184,2.595567 0.49104,1.039996 0.32735,0.38543 0.32736,0.11289 0.32736,-0.163453 0.32735,-0.42685 0.49104,-1.067486 0.81839,-2.510239 1.14576,-3.431091 0.49103,-0.891535 0.32736,-0.298543 0.32736,-0.04109 0.32735,0.216638 0.49104,0.770706 0.65472,1.671797 1.63678,4.725725 0.49104,0.815868 0.32736,0.268966 0.32736,0.03324 0.32735,-0.200327 0.49104,-0.700769 0.65471,-1.508585 1.80047,-4.590125 0.49104,-0.641075 0.32735,-0.182492 0.32736,0.0211 0.32736,0.21825 0.49104,0.656441 0.65471,1.328144 1.63679,3.576576 0.49104,0.620681 0.49103,0.267895 0.32736,-0.02588 0.49104,-0.327505 0.49103,-0.619847 0.98207,-1.744277 0.98208,-1.696854 0.65471,-0.73144 0.49104,-0.241306 0.49104,0.03913 0.49103,0.300406 0.65472,0.724135 2.45518,3.167445 0.49103,0.21932 0.49104,-0.0081 0.49104,-0.231743 0.65471,-0.609961 0.98207,-1.317114 1.14576,-1.502164 0.65471,-0.520895 0.49104,-0.132748 0.49103,0.116303 0.49104,0.362708 0.65471,0.812415 2.29151,3.395868 0.49103,0.256964 0.49104,-0.05238 0.49104,-0.370807 0.49103,-0.660444 0.8184,-1.547799 1.14575,-2.223385 0.49103,-0.625221 0.49104,-0.282516 0.32736,0.02943 0.32736,0.208894 0.49103,0.631578 0.65472,1.319861 1.80046,3.984165 0.49104,0.484328 0.32736,0.0717 0.32735,-0.141509 0.49104,-0.601014 0.49104,-1.005787 0.98207,-2.697096 0.81839,-2.102801 0.49104,-0.829532 0.32736,-0.289086 0.32736,-0.05082 0.32735,0.195008 0.32736,0.433577 0.49104,1.046129 0.81839,2.446555 1.14575,3.380135 0.49104,0.881525 0.32736,0.288533 0.32735,0.02379 0.32736,-0.24508 0.49104,-0.841088 0.65471,-1.825011 1.80047,-5.616631 0.49104,-0.731062 0.32735,-0.155455 0.32736,0.123334 0.32736,0.394691 0.49103,1.044982 0.8184,2.568354 1.14575,3.702649 0.49104,1.038102 0.32735,0.391447 0.32736,0.123197 0.32736,-0.150484 0.32736,-0.412946 0.49103,-1.048608 0.8184,-2.49478 1.14575,-3.440473 0.49103,-0.893561 0.32736,-0.295398 0.32736,-0.0334 0.32736,0.229018 0.49103,0.796962 0.65472,1.714528 1.63679,4.740287 0.49103,0.748832 0.32736,0.199086 0.32736,-0.05651 0.32735,-0.307918 0.49104,-0.887034 0.65472,-1.771915 1.4731,-4.294313 0.49104,-0.8579 0.32736,-0.293753 0.32736,-0.05118 0.32735,0.192328 0.49104,0.711736 0.65471,1.567693 1.80047,4.861217 0.49104,0.678717 0.32736,0.186632 0.32735,-0.03564 0.32736,-0.251363 0.49104,-0.736746 0.65471,-1.472979 1.47311,-3.577521 0.49104,-0.741215 0.49103,-0.345485 0.32736,0.0055 0.32736,0.189172 0.49103,0.589806 0.65472,1.205031 1.63679,3.211756 0.49103,0.527323 0.49104,0.19312 0.32736,-0.0632 0.49103,-0.36192 0.65472,-0.87836 2.12782,-3.295426 0.49104,-0.315825 0.49104,-0.04322 0.49103,0.222313 0.65472,0.640748 1.14575,1.613908 0.98207,1.242968 0.65472,0.48232 0.49103,0.118696 0.49104,-0.09693 0.65471,-0.432523 0.8184,-0.893305 1.80046,-2.08634 0.65472,-0.378218 0.49104,-0.06119 0.49103,0.139504 0.65472,0.473565 0.81839,0.930159 1.47311,1.779113 0.65471,0.450042 0.49104,0.09405 0.49104,-0.13709 0.49103,-0.360837 0.65472,-0.767295 1.96414,-2.620422 0.49104,-0.283726 0.49104,-0.01087 0.49103,0.274742 0.49104,0.537135 0.81839,1.305955 1.30943,2.124615 0.49104,0.456233 0.49104,0.144847 0.32735,-0.09315 0.49104,-0.419497 0.65471,-1.002984 2.12783,-3.836278 0.49104,-0.298065 0.32735,0.01413 0.32736,0.187639 0.49104,0.584629 0.65471,1.223474 1.63679,3.398001 0.49104,0.550967 0.32735,0.152379 0.32736,-0.03306 0.32736,-0.21756 0.49103,-0.643015 0.65472,-1.30699 1.47311,-3.223699 0.49104,-0.643217 0.49103,-0.250168 0.32736,0.07064 0.32736,0.257081 0.49103,0.697813 0.8184,1.734604 1.14575,2.500211 0.49104,0.689498 0.49103,0.30732 0.32736,-0.02974 0.32736,-0.21637 0.49103,-0.641787 0.65472,-1.299284 1.47311,-3.168261 0.49103,-0.623286 0.49104,-0.237767 0.32736,0.07246 0.49103,0.441736 0.49104,0.781887 0.98207,2.128281 0.98207,1.93869 0.49104,0.57464 0.49104,0.203725 0.32735,-0.08209 0.49104,-0.431963 0.65472,-1.040548 1.96414,-3.632361 0.32736,-0.302766 v 0"
           style="fill:none;stroke:#000000;stroke-width:1.5;stroke-linecap:square;stroke-linejoin:round;stroke-miterlimit:10;stroke-dasharray:none;stroke-opacity:1"
           id="path10618" /></g></g><g
       id="g10620"><g
         id="g10622"
         clip-path="url(#clipPath10626)"><path
           d="m 56.429358,67.164927 0.654715,-6.206592 0.491036,-2.538922 0.327358,-0.601182 0.163678,0.03617 0.163679,0.275665 0.327358,1.230389 0.327357,2.127021 0.491037,4.740898 0.818393,11.065663 1.473109,21.039566 0.654715,5.802237 0.327358,1.60211 0.327357,0.68859 0.163679,-0.007 0.163679,-0.21213 0.327358,-1.09501 0.491036,-3.16312 0.654715,-6.429626 1.473109,-15.674506 0.491036,-2.747732 0.327358,-0.68823 0.163678,0.01735 0.163679,0.182441 0.327358,0.98045 0.491036,2.568053 1.473109,8.402249 0.327358,0.926591 0.327357,0.429106 0.163679,0.0664 0.327357,-0.240449 0.491037,-0.996282 1.636787,-3.72592 0.327358,-0.03088 0.327358,0.364401 0.491036,1.306273 0.491036,1.958912 1.30943,5.956922 0.491037,1.266953 0.327357,0.216806 0.327358,-0.358675 0.327357,-0.971305 0.491037,-2.609177 0.654715,-5.18228 1.636787,-14.39292 0.491037,-2.186786 0.163678,-0.353817 0.163679,-0.08389 0.163679,0.102305 0.327357,0.959355 0.327358,1.888647 0.491036,4.41999 0.818394,10.1119 1.145752,14.110701 0.491036,3.91017 0.327357,1.52626 0.327358,0.55136 0.163679,-0.0783 0.327357,-0.95464 0.327358,-1.91477 0.491036,-4.47622 0.818394,-10.22451 1.145751,-14.704282 0.654715,-5.554106 0.327358,-1.504878 0.327358,-0.545181 0.163678,0.122473 0.163679,0.31435 0.327358,1.387816 0.491036,3.697803 0.654715,7.095018 1.636788,18.865997 0.491036,3.16116 0.327358,1.02192 0.163678,0.18169 0.163679,-0.1084 0.163679,-0.2936 0.327357,-1.31667 0.491037,-3.49179 0.654715,-6.520021 1.145751,-11.542523 0.491036,-3.058939 0.327358,-0.969498 0.163679,-0.117883 0.163679,0.07211 0.327357,0.871351 0.491036,2.871383 0.654715,5.847346 1.14575,10.591608 0.49104,2.543957 0.32736,0.544933 0.16367,-0.119181 0.16368,-0.338092 0.32736,-1.452689 0.49104,-3.862893 0.65471,-7.291132 1.14575,-12.849325 0.49104,-3.253846 0.32736,-0.920948 0.16368,-0.04038 0.16368,0.206317 0.32735,1.254353 0.49104,3.770506 0.65471,7.685661 1.63679,20.892945 0.49104,3.45029 0.32736,1.06695 0.16367,0.14562 0.16368,-0.15207 0.16368,-0.39767 0.32736,-1.61498 0.49104,-4.25592 0.65471,-8.264598 1.63679,-22.27209 0.49104,-3.713376 0.32735,-1.125695 0.16368,-0.130755 0.16368,0.193606 0.32736,1.264297 0.32735,2.407984 0.49104,5.449445 0.98207,14.731456 0.8184,11.447776 0.49103,4.48509 0.32736,1.58609 0.16368,0.33796 0.16368,0.007 0.16368,-0.29016 0.32735,-1.5021 0.49104,-4.27756 0.65472,-8.35939 1.30943,-17.614454 0.49103,-4.237222 0.32736,-1.635269 0.32736,-0.600182 0.16368,0.08597 0.32735,0.935016 0.32736,1.864428 0.49104,4.243846 0.98207,11.356017 0.98207,10.510635 0.49104,3.379085 0.32736,1.26901 0.32736,0.4043 0.16367,-0.12599 0.32736,-0.90837 0.32736,-1.72744 0.49103,-3.907618 0.8184,-8.707424 0.98207,-10.304536 0.49104,-3.562029 0.32736,-1.435942 0.32735,-0.581997 0.16368,0.04606 0.16368,0.262902 0.32736,1.186841 0.49103,3.276419 0.65472,6.441301 1.47311,15.256521 0.49104,2.814462 0.32735,0.80432 0.16368,0.0541 0.16368,-0.16926 0.32736,-1.02715 0.49103,-3.104952 0.65472,-6.336647 1.47311,-15.511806 0.49103,-3.029686 0.32736,-0.974063 0.16368,-0.144707 0.16368,0.07611 0.32736,0.83769 0.32735,1.692405 0.49104,3.913482 0.81839,8.804149 0.98208,10.423331 0.49103,3.579334 0.32736,1.42513 0.32736,0.55356 0.16368,-0.0666 0.16368,-0.28675 0.32735,-1.24491 0.49104,-3.385667 0.65471,-6.638174 1.47311,-16.151985 0.49104,-3.262098 0.32736,-1.10617 0.16368,-0.196924 0.16367,0.03734 0.16368,0.287254 0.32736,1.27914 0.49104,3.547083 0.65471,7.035371 1.47311,17.032279 0.49104,3.299521 0.32736,1.04407 0.16367,0.15002 0.16368,-0.11485 0.32736,-0.97314 0.32736,-1.91835 0.49103,-4.368407 0.98208,-11.76017 0.81839,-9.244039 0.49104,-3.813702 0.32735,-1.510688 0.32736,-0.584012 0.16368,0.05971 0.32736,0.838156 0.32736,1.731665 0.49103,4.04564 0.8184,9.195509 1.14575,12.620986 0.49103,3.419082 0.32736,1.25143 0.16368,0.29136 0.16368,0.0462 0.16368,-0.17584 0.32736,-1.05136 0.49103,-3.166025 0.65472,-6.483867 1.63678,-17.691826 0.49104,-2.857498 0.32736,-0.81863 0.16368,-0.06636 0.16368,0.176793 0.32735,1.024815 0.32736,1.86896 0.49104,4.104881 2.12782,20.778752 0.32736,1.470755 0.32736,0.65921 0.16368,0.013 0.16367,-0.1848 0.32736,-0.97383 0.49104,-2.795996 0.65471,-5.535707 1.47311,-13.49188 0.49104,-2.865192 0.32736,-1.102777 0.32735,-0.393698 0.16368,0.0789 0.32736,0.681542 0.32736,1.349604 0.49103,3.087241 0.8184,6.955088 1.14575,9.431722 0.49103,2.530239 0.32736,0.896754 0.16368,0.184793 0.16368,0.01686 0.16368,-0.16951 0.32736,-0.848767 0.49103,-2.452588 0.65472,-4.937653 1.47311,-12.108437 0.49103,-2.437908 0.32736,-0.837418 0.16368,-0.164123 0.16368,0.02057 0.16368,0.187211 0.32735,0.891574 0.49104,2.481226 0.65472,4.835896 1.4731,11.341868 0.49104,2.168797 0.32736,0.699675 0.16368,0.108339 0.16368,-0.04455 0.32735,-0.564686 0.32736,-1.149573 0.49104,-2.649972 0.98207,-7.160365 0.98207,-6.563847 0.49104,-2.010725 0.32736,-0.682202 0.16367,-0.130417 0.16368,0.01963 0.32736,0.461748 0.32736,1.003308 0.49104,2.376062 0.81839,5.453153 0.98207,6.521841 0.49104,2.244824 0.32736,0.896788 0.32735,0.349945 0.16368,-0.03467 0.32736,-0.495891 0.32736,-1.026823 0.49103,-2.390208 0.98208,-6.49107 0.81839,-5.039439 0.49104,-1.996169 0.32735,-0.716258 0.32736,-0.175672 0.32736,0.371127 0.32736,0.891427 0.49103,2.184511 0.8184,5.086776 1.14575,7.008639 0.49103,1.865446 0.32736,0.658895 0.32736,0.142676 0.32736,-0.380926 0.32736,-0.882613 0.49103,-2.145498 0.81839,-5.050298 1.14576,-7.110314 0.49103,-1.986314 0.32736,-0.748108 0.32736,-0.23235 0.16368,0.08563 0.32735,0.562718 0.32736,1.06366 0.49104,2.401544 0.98207,6.522025 0.98207,6.088902 0.49104,1.888935 0.32736,0.630442 0.16368,0.10728 0.16367,-0.03277 0.32736,-0.492081 0.32736,-1.036627 0.49104,-2.450961 0.81839,-5.664258 1.14575,-7.878572 0.49104,-2.146774 0.32735,-0.776137 0.32736,-0.191877 0.16368,0.128898 0.32736,0.700723 0.49103,2.074143 0.65472,4.246083 1.63679,11.791924 0.49103,2.039763 0.32736,0.665855 0.16368,0.107331 0.16368,-0.04495 0.32736,-0.544457 0.32735,-1.120583 0.49104,-2.616453 0.81839,-5.980945 1.14576,-8.280942 0.49103,-2.286046 0.32736,-0.857184 0.32736,-0.262189 0.16368,0.09692 0.32735,0.647954 0.32736,1.216333 0.49104,2.732891 0.98207,7.326275 0.81839,5.781979 0.49104,2.403518 0.32736,0.951889 0.32735,0.369806 0.16368,-0.04233 0.32736,-0.5213 0.32736,-1.0769 0.49103,-2.49866 0.98208,-6.855113 0.98207,-6.398679 0.49104,-2.019652 0.32735,-0.718693 0.32736,-0.175807 0.32736,0.369219 0.32736,0.886214 0.49103,2.173833 0.8184,5.08158 1.14575,7.153534 0.49103,2.014255 0.32736,0.79236 0.32736,0.301023 0.16368,-0.03338 0.32736,-0.447386 0.32735,-0.913876 0.49104,-2.122542 0.81839,-4.789638 1.14575,-6.581631 0.49104,-1.823337 0.32736,-0.706121 0.32736,-0.253168 0.16368,0.04273 0.32735,0.43647 0.32736,0.867451 0.49104,1.999618 0.81839,4.513209 1.14575,6.241134 0.49104,1.740546 0.32736,0.677537 0.32735,0.247439 0.16368,-0.037 0.32736,-0.40675 0.32736,-0.814192 0.49103,-1.877968 0.8184,-4.222768 1.14575,-5.791354 0.49103,-1.603194 0.32736,-0.623752 0.32736,-0.229334 0.32736,0.172269 0.32736,0.559745 0.49103,1.480493 0.65472,2.864615 1.47311,6.926272 0.49103,1.463169 0.32736,0.564648 0.32736,0.197545 0.32735,-0.178138 0.32736,-0.54163 0.49104,-1.413259 0.81839,-3.481937 1.30943,-5.692766 0.49104,-1.311172 0.32736,-0.476597 0.32735,-0.12753 0.32736,0.22408 0.32736,0.558606 0.49103,1.379682 0.8184,3.269757 1.14575,4.627421 0.49104,1.335873 0.49103,0.697178 0.32736,0.08019 0.32736,-0.227885 0.32736,-0.516173 0.49103,-1.23274 0.8184,-2.845386 1.14575,-3.963899 0.49103,-1.14686 0.49104,-0.614011 0.32736,-0.08717 0.32735,0.172318 0.32736,0.417317 0.49104,1.021751 0.81839,2.412289 1.30943,3.849169 0.49104,0.88312 0.32736,0.32376 0.32735,0.09227 0.32736,-0.141045 0.32736,-0.363767 0.49104,-0.909549 0.81839,-2.184195 1.30943,-3.526749 0.49104,-0.811193 0.32735,-0.296094 0.32736,-0.08106 0.32736,0.136323 0.32736,0.344318 0.49103,0.856712 0.8184,2.054794 1.30943,3.321802 0.49103,0.769398 0.49104,0.351333 0.32736,-0.02302 0.32735,-0.227077 0.49104,-0.694028 0.65472,-1.434746 1.80046,-4.349265 0.49104,-0.60569 0.32736,-0.160357 0.32735,0.0456 0.32736,0.248729 0.49104,0.721019 0.65471,1.454212 1.63679,3.96075 0.49104,0.65626 0.32735,0.199299 0.32736,-0.0063 0.32736,-0.211097 0.49103,-0.669181 0.65472,-1.408659 1.63679,-3.960486 0.49103,-0.682915 0.32736,-0.217942 0.32736,-0.0131 0.32736,0.192075 0.49103,0.646549 0.65472,1.379091 1.80046,4.174069 0.49104,0.548179 0.32736,0.123103 0.32736,-0.07866 0.49103,-0.484293 0.49104,-0.854659 0.98207,-2.35692 0.98207,-2.191158 0.49104,-0.672298 0.49104,-0.253482 0.32735,0.07897 0.32736,0.274817 0.49104,0.739475 0.81839,1.849266 1.30943,3.022343 0.49104,0.667961 0.32736,0.218415 0.32735,0.01919 0.32736,-0.181863 0.49104,-0.624901 0.65471,-1.363272 1.80047,-4.29961 0.49103,-0.606892 0.32736,-0.16022 0.32736,0.05027 0.32736,0.26002 0.49103,0.75176 0.65472,1.532018 1.63679,4.25007 0.49103,0.733721 0.32736,0.23477 0.32736,0.01296 0.32736,-0.211738 0.49103,-0.716605 0.65472,-1.551777 1.96414,-5.249146 0.49104,-0.574873 0.32736,-0.09852 0.32735,0.141178 0.32736,0.375087 0.49104,0.954539 0.81839,2.342139 1.30943,3.891125 0.49104,0.91404 0.32736,0.334575 0.32735,0.08879 0.32736,-0.163384 0.32736,-0.408323 0.49103,-1.021511 0.8184,-2.476285 1.30943,-4.062029 0.49104,-0.943577 0.32735,-0.342817 0.32736,-0.08907 0.32736,0.169693 0.32735,0.41941 0.49104,1.042355 0.81839,2.504027 1.30943,4.067663 0.49104,0.941293 0.32736,0.343187 0.32736,0.09215 0.32735,-0.162462 0.32736,-0.406497 0.49104,-1.008924 0.81839,-2.415347 1.30943,-3.884285 0.49104,-0.884789 0.32736,-0.318984 0.32735,-0.08184 0.32736,0.156457 0.32736,0.383003 0.49103,0.940608 0.8184,2.241379 1.30943,3.590638 0.49104,0.825673 0.32735,0.307367 0.32736,0.09368 0.32736,-0.121779 0.32735,-0.327932 0.49104,-0.82799 0.8184,-2.020693 1.30943,-3.333017 0.65471,-0.994596 0.49104,-0.26184 0.32735,0.06797 0.32736,0.258922 0.49104,0.704879 0.81839,1.802008 1.47311,3.444064 0.49104,0.731225 0.49103,0.361861 0.32736,0.02596 0.32736,-0.148546 0.49103,-0.523399 0.65472,-1.167334 2.12782,-4.494765 0.49104,-0.515707 0.32736,-0.152207 0.32736,0.01177 0.32735,0.174272 0.49104,0.538959 0.65471,1.144837 1.96415,3.928408 0.49104,0.530149 0.49103,0.186779 0.32736,-0.06764 0.49104,-0.377204 0.65471,-0.948238 2.2915,-4.088002 0.49104,-0.3677 0.49104,-0.04177 0.49103,0.265923 0.65472,0.784344 0.98207,1.718177 0.98207,1.658036 0.65472,0.702291 0.49103,0.2117 0.49104,-0.09221 0.49104,-0.373772 0.65471,-0.860525 2.12783,-3.240923 0.49103,-0.316649 0.49104,-0.03955 0.49104,0.241073 0.49103,0.483829 0.8184,1.168831 1.30943,1.881303 0.65471,0.517146 0.49104,0.102086 0.49103,-0.148761 0.49104,-0.372811 0.81839,-0.961087 1.30943,-1.609043 0.65472,-0.469999 0.49104,-0.121369 0.49103,0.08396 0.65472,0.393097 0.98207,0.948074 1.14575,1.042013 0.65472,0.31834 0.65471,0.03689 0.65472,-0.231158 0.98207,-0.666804 1.14575,-0.785661 0.81839,-0.264995 0.65472,0.04023 0.65471,0.242229 2.45519,1.1262 0.65471,-0.05867 0.65472,-0.261536 1.14575,-0.722103 0.81839,-0.448337 0.65472,-0.150272 0.65471,0.08949 0.81839,0.425099 2.45519,1.601213 0.65471,0.03345 0.65472,-0.207846 0.81839,-0.526648 1.80047,-1.336702 0.65471,-0.226946 0.65472,0.0041 0.65471,0.23365 0.98207,0.668395 1.47311,1.100252 0.8184,0.312365 0.65471,0.0035 0.65472,-0.220205 0.81839,-0.518027 2.12783,-1.557126 0.81839,-0.230194 0.65471,0.05936 0.65472,0.280001 0.81839,0.591678 1.96415,1.630417 0.65471,0.280309 0.49104,0.04774 0.65471,-0.184349 0.8184,-0.588648 0.98207,-1.033357 1.30943,-1.274457 0.65472,-0.306002 0.49103,-0.0082 0.49104,0.184026 0.65471,0.543831 0.98208,1.24642 1.14575,1.47324 0.65471,0.507959 0.49104,0.113279 0.49104,-0.131621 0.49103,-0.389288 0.65472,-0.8348 2.2915,-3.279366 0.49104,-0.18333 0.32735,0.04571 0.49104,0.32339 0.65472,0.874606 1.14575,2.218165 0.98207,1.683091 0.49104,0.472701 0.32735,0.132073 0.32736,-0.03145 0.32736,-0.197422 0.49103,-0.58503 0.65472,-1.238574 1.96414,-4.194076 0.49104,-0.480517 0.32736,-0.08631 0.32736,0.109803 0.49103,0.53026 0.49104,0.902347 0.98207,2.506347 0.98207,2.383881 0.49104,0.757902 0.49104,0.308287 0.32735,-0.06212 0.32736,-0.27807 0.49104,-0.783702 0.65471,-1.577722 1.63679,-4.248984 0.49104,-0.690822 0.32736,-0.195909 0.32735,0.03074 0.32736,0.257955 0.49104,0.787193 0.65471,1.631894 1.80047,4.955301 0.49103,0.652567 0.32736,0.133396 0.32736,-0.123543 0.32736,-0.37924 0.49103,-1.011969 0.65472,-1.962848 1.47311,-4.689235 0.49103,-0.893262 0.32736,-0.262146 0.32736,0.02858 0.32736,0.322383 0.49103,1.001337 0.65472,2.079462 1.63678,5.697653 0.49104,0.876026 0.32736,0.214408 0.32736,-0.104047 0.32735,-0.418958 0.49104,-1.161901 0.65472,-2.307598 1.4731,-5.631103 0.49104,-1.140226 0.32736,-0.398225 0.32736,-0.07615 0.32735,0.252924 0.32736,0.571192 0.49104,1.384632 0.81839,3.291799 1.14575,4.744372 0.49104,1.379453 0.32736,0.546041 0.32735,0.207114 0.32736,-0.146831 0.32736,-0.495719 0.49103,-1.342291 0.65472,-2.620408 1.63679,-6.94642 0.49103,-1.121251 0.32736,-0.337352 0.32736,0.01613 0.32736,0.366525 0.32735,0.694801 0.49104,1.557792 0.98207,4.228076 0.98208,3.949838 0.49103,1.276249 0.32736,0.468941 0.32736,0.14176 0.32735,-0.188641 0.32736,-0.504676 0.49104,-1.289481 0.65471,-2.405933 1.47311,-5.663457 0.49104,-1.176167 0.32736,-0.429728 0.32735,-0.126721 0.32736,0.18041 0.49104,0.827705 0.49103,1.352756 1.30943,4.869529 0.65472,2.079913 0.49104,1.013747 0.32735,0.323985 0.32736,0.02648 0.32736,-0.271984 0.49103,-0.94169 0.49104,-1.419678 1.96415,-6.550576 0.49103,-0.746937 0.32736,-0.12088 0.32736,0.184968 0.49103,0.841149 0.49104,1.352144 1.96415,6.585022 0.49103,0.80798 0.32736,0.174665 0.32736,-0.115751 0.49103,-0.71495 0.49104,-1.197555 2.45518,-7.464027 0.49104,-0.413951 0.16368,-0.04088 0.32735,0.168626 0.49104,0.747481 0.49104,1.16946 2.45518,7.282294 0.49103,0.509632 0.32736,0.0563 0.32736,-0.188115 0.32736,-0.422205 0.49103,-0.995762 0.98208,-2.947968 0.98207,-2.998979 0.49103,-1.105338 0.49104,-0.607014 0.32736,-0.137613 0.32736,0.09139 0.32735,0.308099 0.49104,0.790586 0.98207,2.416632 0.98208,2.484744 0.49103,0.967452 0.65472,0.763455 0.49103,0.1307 0.32736,-0.09618 0.32736,-0.244567 0.49103,-0.58487 1.30944,-2.473536 0.81839,-1.556636 0.81839,-0.938143 0.32736,-0.154634 0.32736,-0.0081 0.32736,0.13671 0.32735,0.271018 0.49104,0.585437 1.63679,2.586659 0.49103,0.536798 0.65472,0.284519 0.65471,-0.138106 0.98208,-0.779428 1.63678,-1.888094 0.49104,-0.425109 0.65471,-0.19881 0.65472,0.222997 0.98207,0.925711 1.30943,1.520909 0.65472,0.563993 0.49103,0.252052 0.65472,0.03483 0.65471,-0.290879 0.8184,-0.707934 1.63679,-1.561321 0.49103,-0.246942 0.49104,-0.04458 0.49103,0.168863 0.49104,0.42969 0.32736,0.444427 v 0"
           style="fill:none;stroke:#0000ff;stroke-width:1.5;stroke-linecap:square;stroke-linejoin:round;stroke-miterlimit:10;stroke-dasharray:none;stroke-opacity:1"
           id="path10628" /></g></g><g
       id="g10630"><path
         d="M 56.405,41.96 V 132.7"
         style="fill:none;stroke:#000000;stroke-width:0.8;stroke-linecap:square;stroke-linejoin:miter;stroke-miterlimit:10;stroke-dasharray:none;stroke-opacity:1"
         id="path10632" /><path
         d="M 550.9125,41.96 V 132.7"
         style="fill:none;stroke:#000000;stroke-width:0.8;stroke-linecap:square;stroke-linejoin:miter;stroke-miterlimit:10;stroke-dasharray:none;stroke-opacity:1"
         id="path10634" /><path
         d="M 56.405,41.96 H 550.9125"
         style="fill:none;stroke:#000000;stroke-width:0.8;stroke-linecap:square;stroke-linejoin:miter;stroke-miterlimit:10;stroke-dasharray:none;stroke-opacity:1"
         id="path10636" /><path
         d="M 56.405,132.7 H 550.9125"
         style="fill:none;stroke:#000000;stroke-width:0.8;stroke-linecap:square;stroke-linejoin:miter;stroke-miterlimit:10;stroke-dasharray:none;stroke-opacity:1"
         id="path10638" /><text
         transform="matrix(1,0,0,-1,526.18712,119.089)"
         style="font-variant:normal;font-weight:normal;font-size:12px;font-family:'DejaVu Sans Mono for Powerline';-inkscape-font-specification:DejaVuSans;writing-mode:lr-tb;fill:#000000;fill-opacity:1;fill-rule:nonzero;stroke:none"
         id="text10642"><tspan
           x="0 6.5999999"
           y="0"
           sodipodi:role="line"
           id="tspan10640">c)</tspan></text></g></g></svg>
